<?xml version="1.0" encoding="utf-8"?>
<!-- Generator: Adobe Illustrator 19.2.0, SVG Export Plug-In . SVG Version: 6.00 Build 0)  -->
<svg version="1.1" id="Calque_1" xmlns="http://www.w3.org/2000/svg" xmlns:xlink="http://www.w3.org/1999/xlink" x="0px" y="0px"
	 viewBox="0 0 1400 800" style="enable-background:new 0 0 1400 800;" xml:space="preserve">
<style type="text/css">
	.st0{fill:url(#SVGID_1_);}
	.st1{fill:url(#SVGID_2_);}
	.st2{fill:url(#SVGID_3_);}
	.st3{fill:url(#SVGID_4_);}
	.st4{fill:url(#SVGID_5_);}
	.st5{fill:url(#SVGID_6_);}
	.st6{fill:url(#SVGID_7_);}
	.st7{fill:url(#SVGID_8_);}
	.st8{fill:url(#SVGID_9_);}
	.st9{fill:url(#SVGID_10_);}
	.st10{fill:url(#SVGID_11_);}
	.st11{fill:url(#SVGID_12_);}
	.st12{fill:url(#SVGID_13_);}
	.st13{fill:url(#SVGID_14_);}
	.st14{fill:url(#SVGID_15_);}
	.st15{fill:url(#SVGID_16_);}
	.st16{fill:url(#SVGID_17_);}
	.st17{fill:url(#SVGID_18_);}
	.st18{fill:url(#SVGID_19_);}
	.st19{fill:url(#SVGID_20_);}
	.st20{fill:url(#SVGID_21_);}
	.st21{fill:url(#SVGID_22_);}
	.st22{fill:url(#SVGID_23_);}
	.st23{fill:url(#SVGID_24_);}
	.st24{fill:url(#SVGID_25_);}
	.st25{fill:url(#SVGID_26_);}
	.st26{fill:url(#SVGID_27_);}
	.st27{fill:url(#SVGID_28_);}
	.st28{fill:url(#SVGID_29_);}
	.st29{fill:url(#SVGID_30_);}
	.st30{fill:url(#SVGID_31_);}
	.st31{fill:url(#SVGID_32_);}
	.st32{fill:url(#SVGID_33_);}
	.st33{fill:url(#SVGID_34_);}
	.st34{fill:url(#SVGID_35_);}
	.st35{fill:url(#SVGID_36_);}
	.st36{fill:url(#SVGID_37_);}
	.st37{fill:url(#SVGID_38_);}
</style>
<g>
	<linearGradient id="SVGID_1_" gradientUnits="userSpaceOnUse" x1="789.5116" y1="907.6456" x2="610.4884" y2="-107.6456">
		<stop  offset="9.005542e-02" style="stop-color:#FFB84B"/>
		<stop  offset="0.6176" style="stop-color:#962A87"/>
	</linearGradient>
	<rect class="st0" width="1400" height="800"/>
	<g>
		<linearGradient id="SVGID_2_" gradientUnits="userSpaceOnUse" x1="159.432" y1="811.3527" x2="159.432" y2="-4.6294">
			<stop  offset="0" style="stop-color:#FAF43D"/>
			<stop  offset="1" style="stop-color:#E33766"/>
		</linearGradient>
		<path class="st1" d="M136.5,476c69-25.8,164.6-26.6,180.5-118.9c16.9-98.2-84.4-130.4-161.2-126.3C98.9,233.9,47.1,258.3,0,289.1
			v7.7c51-29.5,127.1-46.1,182-26.1c54.7,20,92.4,81.6,47.6,129.4c-35.2,37.6-86.9,44.7-142.4,65.9C38.9,484.5,13.8,507.9,0,525.8
			v55C31,532.1,84.6,495.4,136.5,476z"/>
		<linearGradient id="SVGID_3_" gradientUnits="userSpaceOnUse" x1="159.432" y1="838.3831" x2="159.432" y2="34.0385">
			<stop  offset="0" style="stop-color:#FFDA2A"/>
			<stop  offset="1" style="stop-color:#FF5773"/>
		</linearGradient>
		<path class="st2" d="M136.5,476c69-25.8,164.6-26.6,180.5-118.9c16.9-98.2-84.4-130.4-161.2-126.3C98.9,233.9,47.1,258.3,0,289.1
			v7.7c51-29.5,127.1-46.1,182-26.1c54.7,20,92.4,81.6,47.6,129.4c-35.2,37.6-86.9,44.7-142.4,65.9C38.9,484.5,13.8,507.9,0,525.8
			v55C31,532.1,84.6,495.4,136.5,476z"/>
		<linearGradient id="SVGID_4_" gradientUnits="userSpaceOnUse" x1="159.432" y1="847.0093" x2="159.432" y2="127.5139">
			<stop  offset="0" style="stop-color:#F5CF00"/>
			<stop  offset="0.7421" style="stop-color:#FA4866"/>
		</linearGradient>
		<path class="st3" d="M136.5,476c69-25.8,164.6-26.6,180.5-118.9c16.9-98.2-84.4-130.4-161.2-126.3C98.9,233.9,47.1,258.3,0,289.1
			v7.7c51-29.5,127.1-46.1,182-26.1c54.7,20,92.4,81.6,47.6,129.4c-35.2,37.6-86.9,44.7-142.4,65.9C38.9,484.5,13.8,507.9,0,525.8
			v55C31,532.1,84.6,495.4,136.5,476z"/>
		<linearGradient id="SVGID_5_" gradientUnits="userSpaceOnUse" x1="159.432" y1="804" x2="159.432" y2="177.8448">
			<stop  offset="0" style="stop-color:#F52455"/>
			<stop  offset="1" style="stop-color:#FFC840"/>
		</linearGradient>
		<path class="st4" d="M136.5,476c69-25.8,164.6-26.6,180.5-118.9c16.9-98.2-84.4-130.4-161.2-126.3C98.9,233.9,47.1,258.3,0,289.1
			v7.7c51-29.5,127.1-46.1,182-26.1c54.7,20,92.4,81.6,47.6,129.4c-35.2,37.6-86.9,44.7-142.4,65.9C38.9,484.5,13.8,507.9,0,525.8
			v55C31,532.1,84.6,495.4,136.5,476z"/>
		<linearGradient id="SVGID_6_" gradientUnits="userSpaceOnUse" x1="159.432" y1="613.3029" x2="159.432" y2="230.5189">
			<stop  offset="0" style="stop-color:#B12CD3"/>
			<stop  offset="1" style="stop-color:#FF4974"/>
		</linearGradient>
		<path class="st5" d="M136.5,476c69-25.8,164.6-26.6,180.5-118.9c16.9-98.2-84.4-130.4-161.2-126.3C98.9,233.9,47.1,258.3,0,289.1
			v7.7c51-29.5,127.1-46.1,182-26.1c54.7,20,92.4,81.6,47.6,129.4c-35.2,37.6-86.9,44.7-142.4,65.9C38.9,484.5,13.8,507.9,0,525.8
			v55C31,532.1,84.6,495.4,136.5,476z"/>
		<linearGradient id="SVGID_7_" gradientUnits="userSpaceOnUse" x1="124.6986" y1="811.3527" x2="124.6986" y2="-4.6294">
			<stop  offset="0" style="stop-color:#FAF43D"/>
			<stop  offset="1" style="stop-color:#E33766"/>
		</linearGradient>
		<path class="st6" d="M87.2,466c55.5-21.2,107.2-28.3,142.4-65.9c44.7-47.7,7.1-109.4-47.6-129.4c-54.9-20.1-131-3.4-182,26.1v7.1
			c20.4-8.9,68.1-25.6,126.5-18.8c78.3,9,76.3,53.1,75.5,61.3c-0.8,8.3-0.8,37-46.8,51.5c-46,14.6-73.5,11-110.9,41.7
			C25.7,454.8,10.6,474.4,0,490.3v35.5C13.8,507.9,38.9,484.5,87.2,466z"/>
		<linearGradient id="SVGID_8_" gradientUnits="userSpaceOnUse" x1="124.6986" y1="838.3831" x2="124.6986" y2="34.0385">
			<stop  offset="0" style="stop-color:#FFDA2A"/>
			<stop  offset="1" style="stop-color:#FF5773"/>
		</linearGradient>
		<path class="st7" d="M87.2,466c55.5-21.2,107.2-28.3,142.4-65.9c44.7-47.7,7.1-109.4-47.6-129.4c-54.9-20.1-131-3.4-182,26.1v7.1
			c20.4-8.9,68.1-25.6,126.5-18.8c78.3,9,76.3,53.1,75.5,61.3c-0.8,8.3-0.8,37-46.8,51.5c-46,14.6-73.5,11-110.9,41.7
			C25.7,454.8,10.6,474.4,0,490.3v35.5C13.8,507.9,38.9,484.5,87.2,466z"/>
		<linearGradient id="SVGID_9_" gradientUnits="userSpaceOnUse" x1="124.6986" y1="847.0093" x2="124.6986" y2="127.5139">
			<stop  offset="0" style="stop-color:#F5CF00"/>
			<stop  offset="0.7421" style="stop-color:#FA4866"/>
		</linearGradient>
		<path class="st8" d="M87.2,466c55.5-21.2,107.2-28.3,142.4-65.9c44.7-47.7,7.1-109.4-47.6-129.4c-54.9-20.1-131-3.4-182,26.1v7.1
			c20.4-8.9,68.1-25.6,126.5-18.8c78.3,9,76.3,53.1,75.5,61.3c-0.8,8.3-0.8,37-46.8,51.5c-46,14.6-73.5,11-110.9,41.7
			C25.7,454.8,10.6,474.4,0,490.3v35.5C13.8,507.9,38.9,484.5,87.2,466z"/>
		<linearGradient id="SVGID_10_" gradientUnits="userSpaceOnUse" x1="124.6986" y1="804" x2="124.6986" y2="177.8448">
			<stop  offset="0" style="stop-color:#F52455"/>
			<stop  offset="1" style="stop-color:#FFC840"/>
		</linearGradient>
		<path class="st9" d="M87.2,466c55.5-21.2,107.2-28.3,142.4-65.9c44.7-47.7,7.1-109.4-47.6-129.4c-54.9-20.1-131-3.4-182,26.1v7.1
			c20.4-8.9,68.1-25.6,126.5-18.8c78.3,9,76.3,53.1,75.5,61.3c-0.8,8.3-0.8,37-46.8,51.5c-46,14.6-73.5,11-110.9,41.7
			C25.7,454.8,10.6,474.4,0,490.3v35.5C13.8,507.9,38.9,484.5,87.2,466z"/>
		<linearGradient id="SVGID_11_" gradientUnits="userSpaceOnUse" x1="124.6986" y1="613.3029" x2="124.6986" y2="230.5189">
			<stop  offset="0" style="stop-color:#B12CD3"/>
			<stop  offset="1" style="stop-color:#FF4974"/>
		</linearGradient>
		<path class="st10" d="M87.2,466c55.5-21.2,107.2-28.3,142.4-65.9c44.7-47.7,7.1-109.4-47.6-129.4c-54.9-20.1-131-3.4-182,26.1v7.1
			c20.4-8.9,68.1-25.6,126.5-18.8c78.3,9,76.3,53.1,75.5,61.3c-0.8,8.3-0.8,37-46.8,51.5c-46,14.6-73.5,11-110.9,41.7
			C25.7,454.8,10.6,474.4,0,490.3v35.5C13.8,507.9,38.9,484.5,87.2,466z"/>
		<linearGradient id="SVGID_12_" gradientUnits="userSpaceOnUse" x1="124.6986" y1="553.0498" x2="124.6986" y2="261.9103">
			<stop  offset="0" style="stop-color:#694CD5"/>
			<stop  offset="1" style="stop-color:#F02198"/>
		</linearGradient>
		<path class="st11" d="M87.2,466c55.5-21.2,107.2-28.3,142.4-65.9c44.7-47.7,7.1-109.4-47.6-129.4c-54.9-20.1-131-3.4-182,26.1v7.1
			c20.4-8.9,68.1-25.6,126.5-18.8c78.3,9,76.3,53.1,75.5,61.3c-0.8,8.3-0.8,37-46.8,51.5c-46,14.6-73.5,11-110.9,41.7
			C25.7,454.8,10.6,474.4,0,490.3v35.5C13.8,507.9,38.9,484.5,87.2,466z"/>
		<linearGradient id="SVGID_13_" gradientUnits="userSpaceOnUse" x1="101.1225" y1="811.3527" x2="101.1225" y2="-4.6294">
			<stop  offset="0" style="stop-color:#FAF43D"/>
			<stop  offset="1" style="stop-color:#E33766"/>
		</linearGradient>
		<path class="st12" d="M44.3,439.5c37.4-30.7,64.9-27.1,110.9-41.7c46-14.6,46-43.3,46.8-51.5c0.8-8.3,2.8-52.3-75.5-61.3
			C68.1,278.3,20.4,295,0,303.8v186.5C10.6,474.4,25.7,454.8,44.3,439.5z"/>
		<linearGradient id="SVGID_14_" gradientUnits="userSpaceOnUse" x1="101.1225" y1="838.3831" x2="101.1225" y2="34.0385">
			<stop  offset="0" style="stop-color:#FFDA2A"/>
			<stop  offset="1" style="stop-color:#FF5773"/>
		</linearGradient>
		<path class="st13" d="M44.3,439.5c37.4-30.7,64.9-27.1,110.9-41.7c46-14.6,46-43.3,46.8-51.5c0.8-8.3,2.8-52.3-75.5-61.3
			C68.1,278.3,20.4,295,0,303.8v186.5C10.6,474.4,25.7,454.8,44.3,439.5z"/>
		<linearGradient id="SVGID_15_" gradientUnits="userSpaceOnUse" x1="101.1225" y1="847.0093" x2="101.1225" y2="127.5139">
			<stop  offset="0" style="stop-color:#F5CF00"/>
			<stop  offset="0.7421" style="stop-color:#FA4866"/>
		</linearGradient>
		<path class="st14" d="M44.3,439.5c37.4-30.7,64.9-27.1,110.9-41.7c46-14.6,46-43.3,46.8-51.5c0.8-8.3,2.8-52.3-75.5-61.3
			C68.1,278.3,20.4,295,0,303.8v186.5C10.6,474.4,25.7,454.8,44.3,439.5z"/>
		<linearGradient id="SVGID_16_" gradientUnits="userSpaceOnUse" x1="101.1225" y1="804" x2="101.1225" y2="177.8448">
			<stop  offset="0" style="stop-color:#F52455"/>
			<stop  offset="1" style="stop-color:#FFC840"/>
		</linearGradient>
		<path class="st15" d="M44.3,439.5c37.4-30.7,64.9-27.1,110.9-41.7c46-14.6,46-43.3,46.8-51.5c0.8-8.3,2.8-52.3-75.5-61.3
			C68.1,278.3,20.4,295,0,303.8v186.5C10.6,474.4,25.7,454.8,44.3,439.5z"/>
		<linearGradient id="SVGID_17_" gradientUnits="userSpaceOnUse" x1="101.1225" y1="613.3029" x2="101.1225" y2="230.5189">
			<stop  offset="0" style="stop-color:#B12CD3"/>
			<stop  offset="1" style="stop-color:#FF4974"/>
		</linearGradient>
		<path class="st16" d="M44.3,439.5c37.4-30.7,64.9-27.1,110.9-41.7c46-14.6,46-43.3,46.8-51.5c0.8-8.3,2.8-52.3-75.5-61.3
			C68.1,278.3,20.4,295,0,303.8v186.5C10.6,474.4,25.7,454.8,44.3,439.5z"/>
		<linearGradient id="SVGID_18_" gradientUnits="userSpaceOnUse" x1="101.1225" y1="553.0498" x2="101.1225" y2="261.9103">
			<stop  offset="0" style="stop-color:#694CD5"/>
			<stop  offset="1" style="stop-color:#F02198"/>
		</linearGradient>
		<path class="st17" d="M44.3,439.5c37.4-30.7,64.9-27.1,110.9-41.7c46-14.6,46-43.3,46.8-51.5c0.8-8.3,2.8-52.3-75.5-61.3
			C68.1,278.3,20.4,295,0,303.8v186.5C10.6,474.4,25.7,454.8,44.3,439.5z"/>
		<linearGradient id="SVGID_19_" gradientUnits="userSpaceOnUse" x1="26.3214" y1="534.2183" x2="119.7053" y2="277.648">
			<stop  offset="0" style="stop-color:#2B40F8"/>
			<stop  offset="1" style="stop-color:#00DEFF"/>
		</linearGradient>
		<path class="st18" d="M44.3,439.5c37.4-30.7,64.9-27.1,110.9-41.7c46-14.6,46-43.3,46.8-51.5c0.8-8.3,2.8-52.3-75.5-61.3
			C68.1,278.3,20.4,295,0,303.8v186.5C10.6,474.4,25.7,454.8,44.3,439.5z"/>
		<linearGradient id="SVGID_20_" gradientUnits="userSpaceOnUse" x1="321.2788" y1="811.3527" x2="321.2788" y2="-4.6294">
			<stop  offset="0" style="stop-color:#FAF43D"/>
			<stop  offset="1" style="stop-color:#E33766"/>
		</linearGradient>
		<path class="st19" d="M468.4,255.9c30.3,55,42.8,133.8,2.7,187.1c-30.3,40.3-79.9,63.2-123.9,84.3c-61,29.2-139.3,55.7-168.3,123
			c-17.4,40.4-10.1,76.3,9.8,113.9c0,0.1,0.1,0.2,0.2,0.3c0,0,0,0.1,0.1,0.1c0,0.1,0.1,0.2,0.2,0.3c0,0.1,0.1,0.1,0.1,0.2
			c0.1,0.1,0.1,0.2,0.2,0.3c0,0.1,0.1,0.1,0.1,0.2c0.1,0.1,0.1,0.2,0.2,0.3c0,0.1,0.1,0.2,0.1,0.2c0.1,0.1,0.2,0.3,0.2,0.4
			c0.1,0.1,0.1,0.2,0.2,0.3c0.1,0.1,0.2,0.3,0.3,0.5c0.1,0.1,0.1,0.2,0.2,0.3c0.1,0.2,0.2,0.4,0.4,0.6c0.1,0.1,0.1,0.2,0.2,0.3
			c0.2,0.2,0.3,0.5,0.5,0.8c0,0.1,0.1,0.1,0.1,0.2c0.2,0.3,0.4,0.6,0.6,0.9c0.1,0.1,0.2,0.3,0.3,0.5c0.1,0.2,0.3,0.4,0.4,0.6
			c0.1,0.1,0.2,0.3,0.3,0.4c0.1,0.2,0.3,0.5,0.5,0.7c0.1,0.2,0.2,0.3,0.3,0.5c0.1,0.2,0.3,0.4,0.4,0.6c0.1,0.2,0.3,0.4,0.4,0.6
			c0.1,0.2,0.3,0.4,0.4,0.6c0.1,0.2,0.2,0.4,0.4,0.5c0.2,0.3,0.4,0.6,0.6,0.9c0.1,0.1,0.2,0.2,0.2,0.4c0.2,0.3,0.5,0.7,0.7,1
			c0.1,0.1,0.1,0.2,0.2,0.3c0.3,0.4,0.5,0.8,0.8,1.2c0.1,0.1,0.1,0.2,0.2,0.2c0.1,0.2,0.3,0.4,0.4,0.6c0.4,0.6,0.8,1.3,1.3,1.9
			c0,0.1,0.1,0.1,0.1,0.2c0.2,0.3,0.4,0.7,0.7,1c0.1,0.2,0.2,0.3,0.3,0.5c0.2,0.3,0.4,0.7,0.7,1c0.1,0.2,0.2,0.4,0.4,0.6
			c0.2,0.3,0.3,0.5,0.5,0.8c0.2,0.3,0.4,0.6,0.6,1c0.1,0.1,0.2,0.3,0.3,0.4c0.3,0.4,0.5,0.8,0.8,1.2c0.1,0.2,0.2,0.3,0.3,0.5
			c0.1,0.2,0.3,0.4,0.4,0.6c0.5,0.8,1.1,1.6,1.6,2.4c0.7,1.1,1.5,2.2,2.2,3.3c1,1.5,2,3,3,4.6h33.7c-0.5-18.7-3.1-36.2-3.8-54.1
			c0-0.2,0-0.3,0-0.5c0-0.9-0.1-1.8-0.1-2.7c0-0.3,0-0.5,0-0.8c0-0.8,0-1.6,0-2.4c0-0.3,0-0.7,0-1c0-0.7,0-1.5,0-2.2
			c0-0.4,0-0.8,0-1.1c0-0.7,0-1.4,0-2.1c0-0.4,0-0.8,0-1.2c0-0.7,0-1.3,0.1-2c0-0.4,0-0.9,0.1-1.3c0-0.7,0.1-1.3,0.1-2
			c0-0.5,0.1-0.9,0.1-1.4c0-0.6,0.1-1.3,0.2-1.9c0-0.5,0.1-0.9,0.1-1.4c0.1-0.6,0.1-1.3,0.2-1.9c0.1-0.5,0.1-1,0.2-1.4
			c0.1-0.6,0.2-1.3,0.3-1.9c0.1-0.5,0.1-1,0.2-1.5c0.1-0.6,0.2-1.3,0.3-2c0.1-0.5,0.2-1,0.2-1.5c0.1-0.7,0.2-1.3,0.4-2
			c0.1-0.5,0.2-1,0.3-1.4c0.1-0.7,0.3-1.4,0.4-2.1c0.1-0.5,0.2-0.9,0.3-1.4c0.2-0.8,0.4-1.6,0.6-2.3c0.1-0.4,0.2-0.8,0.3-1.2
			c0.3-1.2,0.6-2.4,1-3.5c8.6-30.1,26.1-49.4,47.3-71.6c32.8-34.3,71.4-53.5,114.2-73.4C476.8,521,547.2,501.3,600,444.2
			c91.3-98.7,20.6-259.9-71.3-334c-91.5-73.8-252.9-93.3-364.2-61.4C96.8,68.2,39,121,0,179.7v49.5
			C104.8,84.5,379.7,94.9,468.4,255.9z"/>
		<linearGradient id="SVGID_21_" gradientUnits="userSpaceOnUse" x1="321.2788" y1="838.3831" x2="321.2788" y2="34.0385">
			<stop  offset="0" style="stop-color:#FFDA2A"/>
			<stop  offset="1" style="stop-color:#FF5773"/>
		</linearGradient>
		<path class="st20" d="M468.4,255.9c30.3,55,42.8,133.8,2.7,187.1c-30.3,40.3-79.9,63.2-123.9,84.3c-61,29.2-139.3,55.7-168.3,123
			c-17.4,40.4-10.1,76.3,9.8,113.9c0,0.1,0.1,0.2,0.2,0.3c0,0,0,0.1,0.1,0.1c0,0.1,0.1,0.2,0.2,0.3c0,0.1,0.1,0.1,0.1,0.2
			c0.1,0.1,0.1,0.2,0.2,0.3c0,0.1,0.1,0.1,0.1,0.2c0.1,0.1,0.1,0.2,0.2,0.3c0,0.1,0.1,0.2,0.1,0.2c0.1,0.1,0.2,0.3,0.2,0.4
			c0.1,0.1,0.1,0.2,0.2,0.3c0.1,0.1,0.2,0.3,0.3,0.5c0.1,0.1,0.1,0.2,0.2,0.3c0.1,0.2,0.2,0.4,0.4,0.6c0.1,0.1,0.1,0.2,0.2,0.3
			c0.2,0.2,0.3,0.5,0.5,0.8c0,0.1,0.1,0.1,0.1,0.2c0.2,0.3,0.4,0.6,0.6,0.9c0.1,0.1,0.2,0.3,0.3,0.5c0.1,0.2,0.3,0.4,0.4,0.6
			c0.1,0.1,0.2,0.3,0.3,0.4c0.1,0.2,0.3,0.5,0.5,0.7c0.1,0.2,0.2,0.3,0.3,0.5c0.1,0.2,0.3,0.4,0.4,0.6c0.1,0.2,0.3,0.4,0.4,0.6
			c0.1,0.2,0.3,0.4,0.4,0.6c0.1,0.2,0.2,0.4,0.4,0.5c0.2,0.3,0.4,0.6,0.6,0.9c0.1,0.1,0.2,0.2,0.2,0.4c0.2,0.3,0.5,0.7,0.7,1
			c0.1,0.1,0.1,0.2,0.2,0.3c0.3,0.4,0.5,0.8,0.8,1.2c0.1,0.1,0.1,0.2,0.2,0.2c0.1,0.2,0.3,0.4,0.4,0.6c0.4,0.6,0.8,1.3,1.3,1.9
			c0,0.1,0.1,0.1,0.1,0.2c0.2,0.3,0.4,0.7,0.7,1c0.1,0.2,0.2,0.3,0.3,0.5c0.2,0.3,0.4,0.7,0.7,1c0.1,0.2,0.2,0.4,0.4,0.6
			c0.2,0.3,0.3,0.5,0.5,0.8c0.2,0.3,0.4,0.6,0.6,1c0.1,0.1,0.2,0.3,0.3,0.4c0.3,0.4,0.5,0.8,0.8,1.2c0.1,0.2,0.2,0.3,0.3,0.5
			c0.1,0.2,0.3,0.4,0.4,0.6c0.5,0.8,1.1,1.6,1.6,2.4c0.7,1.1,1.5,2.2,2.2,3.3c1,1.5,2,3,3,4.6h33.7c-0.5-18.7-3.1-36.2-3.8-54.1
			c0-0.2,0-0.3,0-0.5c0-0.9-0.1-1.8-0.1-2.7c0-0.3,0-0.5,0-0.8c0-0.8,0-1.6,0-2.4c0-0.3,0-0.7,0-1c0-0.7,0-1.5,0-2.2
			c0-0.4,0-0.8,0-1.1c0-0.7,0-1.4,0-2.1c0-0.4,0-0.8,0-1.2c0-0.7,0-1.3,0.1-2c0-0.4,0-0.9,0.1-1.3c0-0.7,0.1-1.3,0.1-2
			c0-0.5,0.1-0.9,0.1-1.4c0-0.6,0.1-1.3,0.2-1.9c0-0.5,0.1-0.9,0.1-1.4c0.1-0.6,0.1-1.3,0.2-1.9c0.1-0.5,0.1-1,0.2-1.4
			c0.1-0.6,0.2-1.3,0.3-1.9c0.1-0.5,0.1-1,0.2-1.5c0.1-0.6,0.2-1.3,0.3-2c0.1-0.5,0.2-1,0.2-1.5c0.1-0.7,0.2-1.3,0.4-2
			c0.1-0.5,0.2-1,0.3-1.4c0.1-0.7,0.3-1.4,0.4-2.1c0.1-0.5,0.2-0.9,0.3-1.4c0.2-0.8,0.4-1.6,0.6-2.3c0.1-0.4,0.2-0.8,0.3-1.2
			c0.3-1.2,0.6-2.4,1-3.5c8.6-30.1,26.1-49.4,47.3-71.6c32.8-34.3,71.4-53.5,114.2-73.4C476.8,521,547.2,501.3,600,444.2
			c91.3-98.7,20.6-259.9-71.3-334c-91.5-73.8-252.9-93.3-364.2-61.4C96.8,68.2,39,121,0,179.7v49.5
			C104.8,84.5,379.7,94.9,468.4,255.9z"/>
		<linearGradient id="SVGID_22_" gradientUnits="userSpaceOnUse" x1="248.2409" y1="811.3504" x2="248.2409" y2="-4.6317">
			<stop  offset="0" style="stop-color:#FAF43D"/>
			<stop  offset="1" style="stop-color:#E33766"/>
		</linearGradient>
		<path class="st21" d="M293.1,196.3c88.2,31.9,153.5,133.2,109.3,226.5c-34.2,72.1-147,83.5-213,110.5
			c-43.1,17.6-74.4,39.5-91.6,85.2c-0.3,0.9-0.7,1.9-1,2.8c-0.1,0.3-0.2,0.6-0.3,1c-0.2,0.6-0.4,1.2-0.6,1.9
			c-0.1,0.4-0.2,0.8-0.3,1.1c-0.2,0.6-0.3,1.1-0.5,1.7c-0.1,0.4-0.2,0.8-0.3,1.2c-0.1,0.5-0.3,1.1-0.4,1.6c-0.1,0.4-0.2,0.8-0.3,1.3
			c-0.1,0.5-0.2,1.1-0.4,1.6c-0.1,0.4-0.2,0.9-0.2,1.3c-0.1,0.5-0.2,1.1-0.3,1.6c-0.1,0.4-0.1,0.9-0.2,1.3c-0.1,0.5-0.2,1.1-0.2,1.6
			c-0.1,0.4-0.1,0.9-0.2,1.3c-0.1,0.5-0.1,1.1-0.2,1.6c-0.1,0.4-0.1,0.9-0.1,1.3c-0.1,0.5-0.1,1-0.2,1.6c0,0.4-0.1,0.9-0.1,1.3
			c0,0.5-0.1,1-0.1,1.6c0,0.5,0,0.9-0.1,1.4c0,0.5-0.1,1.1-0.1,1.6c0,0.5,0,0.9,0,1.4c0,0.5,0,1.1,0,1.6c0,0.5,0,0.9,0,1.4
			c0,0.5,0,1.1,0,1.6c0,0.5,0,0.9,0,1.4c0,0.5,0,1.1,0,1.6c0,0.5,0,0.9,0.1,1.4c0,0.5,0.1,1.1,0.1,1.6c0,0.5,0.1,0.9,0.1,1.4
			c0,0.5,0.1,1.1,0.1,1.6c0,0.5,0.1,0.9,0.1,1.4c0.1,0.5,0.1,1.1,0.2,1.6c0,0.5,0.1,0.9,0.2,1.4c0.1,0.5,0.1,1.1,0.2,1.6
			c0.1,0.5,0.1,0.9,0.2,1.4c0.1,0.5,0.2,1.1,0.2,1.6c0.1,0.4,0.1,0.9,0.2,1.3c0.1,0.6,0.2,1.1,0.3,1.7c0.1,0.4,0.2,0.9,0.2,1.3
			c0.1,0.6,0.2,1.1,0.3,1.7c0.1,0.4,0.2,0.9,0.3,1.3c0.1,0.6,0.2,1.1,0.3,1.7c0.1,0.4,0.2,0.9,0.3,1.3c0.1,0.6,0.2,1.1,0.4,1.7
			c0.1,0.4,0.2,0.9,0.3,1.3c0.1,0.6,0.3,1.1,0.4,1.7c0.1,0.4,0.2,0.9,0.3,1.3c0.1,0.6,0.3,1.2,0.4,1.7c0.1,0.4,0.2,0.8,0.3,1.3
			c0.2,0.6,0.3,1.2,0.5,1.8c0.1,0.4,0.2,0.8,0.3,1.3c0.2,0.6,0.3,1.2,0.5,1.8c0.1,0.4,0.2,0.8,0.4,1.2c0.2,0.6,0.4,1.2,0.5,1.8
			c0.1,0.4,0.2,0.8,0.4,1.2c0.2,0.6,0.4,1.2,0.6,1.8c0.1,0.4,0.2,0.8,0.4,1.2c0.2,0.6,0.4,1.2,0.6,1.9c0.1,0.4,0.2,0.7,0.4,1.1
			c0.2,0.6,0.4,1.3,0.7,1.9c0.1,0.4,0.2,0.7,0.4,1.1c0.2,0.7,0.5,1.3,0.7,2c0.1,0.3,0.2,0.6,0.4,1c0.3,0.7,0.5,1.4,0.8,2.1
			c0.1,0.3,0.2,0.6,0.3,0.9c0.3,0.7,0.6,1.5,0.8,2.2c0.1,0.3,0.2,0.5,0.3,0.8c0.3,0.8,0.6,1.6,0.9,2.4c0.1,0.2,0.1,0.4,0.2,0.6
			c0.4,0.9,0.7,1.8,1.1,2.7c0,0.1,0.1,0.2,0.1,0.3c2.9,7,6,13.9,9.2,20.7c0,0,0,0.1,0,0.1c0.4,0.9,0.9,1.9,1.3,2.8
			c0,0.1,0.1,0.2,0.1,0.3c0.4,0.9,0.8,1.7,1.3,2.6c0,0.1,0.1,0.2,0.2,0.3c0.4,0.9,0.8,1.7,1.3,2.6c0.1,0.1,0.1,0.3,0.2,0.4
			c0.4,0.8,0.8,1.6,1.2,2.5c0.1,0.1,0.1,0.3,0.2,0.4c0.4,0.8,0.8,1.6,1.2,2.4c0.1,0.1,0.1,0.2,0.2,0.4c0.4,0.8,0.8,1.7,1.3,2.5
			c0,0.1,0.1,0.2,0.1,0.3c0.4,0.8,0.9,1.7,1.3,2.5c0,0.1,0.1,0.1,0.1,0.2c0.4,0.9,0.9,1.7,1.3,2.6c0,0,0,0.1,0.1,0.1
			c5.5,10.6,10.9,20.7,15.9,30.3H212c-1-1.5-2-3-3-4.6c-0.7-1.1-1.5-2.2-2.2-3.3c-0.5-0.8-1.1-1.6-1.6-2.4c-0.1-0.2-0.3-0.4-0.4-0.6
			c-0.1-0.2-0.2-0.3-0.3-0.5c-0.3-0.4-0.5-0.8-0.8-1.2c-0.1-0.2-0.2-0.3-0.3-0.4c-0.2-0.3-0.4-0.6-0.6-1c-0.2-0.3-0.3-0.5-0.5-0.8
			c-0.1-0.2-0.2-0.4-0.4-0.6c-0.2-0.3-0.4-0.7-0.7-1c-0.1-0.2-0.2-0.3-0.3-0.5c-0.2-0.3-0.4-0.7-0.7-1c0-0.1-0.1-0.1-0.1-0.2
			c-0.4-0.6-0.8-1.3-1.3-1.9c-0.1-0.2-0.3-0.4-0.4-0.6c-0.1-0.1-0.1-0.2-0.2-0.2c-0.3-0.4-0.5-0.8-0.8-1.2c-0.1-0.1-0.1-0.2-0.2-0.3
			c-0.2-0.4-0.5-0.7-0.7-1c-0.1-0.1-0.2-0.2-0.2-0.4c-0.2-0.3-0.4-0.6-0.6-0.9c-0.1-0.2-0.2-0.4-0.4-0.5c-0.1-0.2-0.3-0.4-0.4-0.6
			c-0.1-0.2-0.3-0.4-0.4-0.6c-0.1-0.2-0.3-0.4-0.4-0.6c-0.1-0.2-0.2-0.3-0.3-0.5c-0.2-0.2-0.3-0.5-0.5-0.7c-0.1-0.1-0.2-0.3-0.3-0.4
			c-0.1-0.2-0.3-0.4-0.4-0.6c-0.1-0.2-0.2-0.3-0.3-0.5c-0.2-0.3-0.4-0.6-0.6-0.9c0-0.1-0.1-0.1-0.1-0.2c-0.2-0.3-0.3-0.5-0.5-0.8
			c-0.1-0.1-0.1-0.2-0.2-0.3c-0.1-0.2-0.2-0.4-0.4-0.6c-0.1-0.1-0.1-0.2-0.2-0.3c-0.1-0.2-0.2-0.3-0.3-0.5c-0.1-0.1-0.1-0.2-0.2-0.3
			c-0.1-0.1-0.2-0.3-0.2-0.4c-0.1-0.1-0.1-0.2-0.1-0.2c-0.1-0.1-0.1-0.2-0.2-0.3c0-0.1-0.1-0.1-0.1-0.2c-0.1-0.1-0.1-0.2-0.2-0.3
			c0-0.1-0.1-0.1-0.1-0.2c-0.1-0.1-0.1-0.2-0.2-0.3c0,0,0-0.1-0.1-0.1c-0.1-0.1-0.1-0.2-0.2-0.3c-19.9-37.6-27.2-73.6-9.8-113.9
			c29-67.4,107.3-93.9,168.3-123c44-21.1,93.6-44.1,123.9-84.3c40.1-53.3,27.6-132.1-2.7-187.1C379.7,94.9,104.8,84.5,0,229.3v28.4
			C76.1,178.6,189,158.6,293.1,196.3z"/>
		<linearGradient id="SVGID_23_" gradientUnits="userSpaceOnUse" x1="248.2409" y1="838.3831" x2="248.2409" y2="34.0385">
			<stop  offset="0" style="stop-color:#FFDA2A"/>
			<stop  offset="1" style="stop-color:#FF5773"/>
		</linearGradient>
		<path class="st22" d="M293.1,196.3c88.2,31.9,153.5,133.2,109.3,226.5c-34.2,72.1-147,83.5-213,110.5
			c-43.1,17.6-74.4,39.5-91.6,85.2c-0.3,0.9-0.7,1.9-1,2.8c-0.1,0.3-0.2,0.6-0.3,1c-0.2,0.6-0.4,1.2-0.6,1.9
			c-0.1,0.4-0.2,0.8-0.3,1.1c-0.2,0.6-0.3,1.1-0.5,1.7c-0.1,0.4-0.2,0.8-0.3,1.2c-0.1,0.5-0.3,1.1-0.4,1.6c-0.1,0.4-0.2,0.8-0.3,1.3
			c-0.1,0.5-0.2,1.1-0.4,1.6c-0.1,0.4-0.2,0.9-0.2,1.3c-0.1,0.5-0.2,1.1-0.3,1.6c-0.1,0.4-0.1,0.9-0.2,1.3c-0.1,0.5-0.2,1.1-0.2,1.6
			c-0.1,0.4-0.1,0.9-0.2,1.3c-0.1,0.5-0.1,1.1-0.2,1.6c-0.1,0.4-0.1,0.9-0.1,1.3c-0.1,0.5-0.1,1-0.2,1.6c0,0.4-0.1,0.9-0.1,1.3
			c0,0.5-0.1,1-0.1,1.6c0,0.5,0,0.9-0.1,1.4c0,0.5-0.1,1.1-0.1,1.6c0,0.5,0,0.9,0,1.4c0,0.5,0,1.1,0,1.6c0,0.5,0,0.9,0,1.4
			c0,0.5,0,1.1,0,1.6c0,0.5,0,0.9,0,1.4c0,0.5,0,1.1,0,1.6c0,0.5,0,0.9,0.1,1.4c0,0.5,0.1,1.1,0.1,1.6c0,0.5,0.1,0.9,0.1,1.4
			c0,0.5,0.1,1.1,0.1,1.6c0,0.5,0.1,0.9,0.1,1.4c0.1,0.5,0.1,1.1,0.2,1.6c0,0.5,0.1,0.9,0.2,1.4c0.1,0.5,0.1,1.1,0.2,1.6
			c0.1,0.5,0.1,0.9,0.2,1.4c0.1,0.5,0.2,1.1,0.2,1.6c0.1,0.4,0.1,0.9,0.2,1.3c0.1,0.6,0.2,1.1,0.3,1.7c0.1,0.4,0.2,0.9,0.2,1.3
			c0.1,0.6,0.2,1.1,0.3,1.7c0.1,0.4,0.2,0.9,0.3,1.3c0.1,0.6,0.2,1.1,0.3,1.7c0.1,0.4,0.2,0.9,0.3,1.3c0.1,0.6,0.2,1.1,0.4,1.7
			c0.1,0.4,0.2,0.9,0.3,1.3c0.1,0.6,0.3,1.1,0.4,1.7c0.1,0.4,0.2,0.9,0.3,1.3c0.1,0.6,0.3,1.2,0.4,1.7c0.1,0.4,0.2,0.8,0.3,1.3
			c0.2,0.6,0.3,1.2,0.5,1.8c0.1,0.4,0.2,0.8,0.3,1.3c0.2,0.6,0.3,1.2,0.5,1.8c0.1,0.4,0.2,0.8,0.4,1.2c0.2,0.6,0.4,1.2,0.5,1.8
			c0.1,0.4,0.2,0.8,0.4,1.2c0.2,0.6,0.4,1.2,0.6,1.8c0.1,0.4,0.2,0.8,0.4,1.2c0.2,0.6,0.4,1.2,0.6,1.9c0.1,0.4,0.2,0.7,0.4,1.1
			c0.2,0.6,0.4,1.3,0.7,1.9c0.1,0.4,0.2,0.7,0.4,1.1c0.2,0.7,0.5,1.3,0.7,2c0.1,0.3,0.2,0.6,0.4,1c0.3,0.7,0.5,1.4,0.8,2.1
			c0.1,0.3,0.2,0.6,0.3,0.9c0.3,0.7,0.6,1.5,0.8,2.2c0.1,0.3,0.2,0.5,0.3,0.8c0.3,0.8,0.6,1.6,0.9,2.4c0.1,0.2,0.1,0.4,0.2,0.6
			c0.4,0.9,0.7,1.8,1.1,2.7c0,0.1,0.1,0.2,0.1,0.3c2.9,7,6,13.9,9.2,20.7c0,0,0,0.1,0,0.1c0.4,0.9,0.9,1.9,1.3,2.8
			c0,0.1,0.1,0.2,0.1,0.3c0.4,0.9,0.8,1.7,1.3,2.6c0,0.1,0.1,0.2,0.2,0.3c0.4,0.9,0.8,1.7,1.3,2.6c0.1,0.1,0.1,0.3,0.2,0.4
			c0.4,0.8,0.8,1.6,1.2,2.5c0.1,0.1,0.1,0.3,0.2,0.4c0.4,0.8,0.8,1.6,1.2,2.4c0.1,0.1,0.1,0.2,0.2,0.4c0.4,0.8,0.8,1.7,1.3,2.5
			c0,0.1,0.1,0.2,0.1,0.3c0.4,0.8,0.9,1.7,1.3,2.5c0,0.1,0.1,0.1,0.1,0.2c0.4,0.9,0.9,1.7,1.3,2.6c0,0,0,0.1,0.1,0.1
			c5.5,10.6,10.9,20.7,15.9,30.3H212c-1-1.5-2-3-3-4.6c-0.7-1.1-1.5-2.2-2.2-3.3c-0.5-0.8-1.1-1.6-1.6-2.4c-0.1-0.2-0.3-0.4-0.4-0.6
			c-0.1-0.2-0.2-0.3-0.3-0.5c-0.3-0.4-0.5-0.8-0.8-1.2c-0.1-0.2-0.2-0.3-0.3-0.4c-0.2-0.3-0.4-0.6-0.6-1c-0.2-0.3-0.3-0.5-0.5-0.8
			c-0.1-0.2-0.2-0.4-0.4-0.6c-0.2-0.3-0.4-0.7-0.7-1c-0.1-0.2-0.2-0.3-0.3-0.5c-0.2-0.3-0.4-0.7-0.7-1c0-0.1-0.1-0.1-0.1-0.2
			c-0.4-0.6-0.8-1.3-1.3-1.9c-0.1-0.2-0.3-0.4-0.4-0.6c-0.1-0.1-0.1-0.2-0.2-0.2c-0.3-0.4-0.5-0.8-0.8-1.2c-0.1-0.1-0.1-0.2-0.2-0.3
			c-0.2-0.4-0.5-0.7-0.7-1c-0.1-0.1-0.2-0.2-0.2-0.4c-0.2-0.3-0.4-0.6-0.6-0.9c-0.1-0.2-0.2-0.4-0.4-0.5c-0.1-0.2-0.3-0.4-0.4-0.6
			c-0.1-0.2-0.3-0.4-0.4-0.6c-0.1-0.2-0.3-0.4-0.4-0.6c-0.1-0.2-0.2-0.3-0.3-0.5c-0.2-0.2-0.3-0.5-0.5-0.7c-0.1-0.1-0.2-0.3-0.3-0.4
			c-0.1-0.2-0.3-0.4-0.4-0.6c-0.1-0.2-0.2-0.3-0.3-0.5c-0.2-0.3-0.4-0.6-0.6-0.9c0-0.1-0.1-0.1-0.1-0.2c-0.2-0.3-0.3-0.5-0.5-0.8
			c-0.1-0.1-0.1-0.2-0.2-0.3c-0.1-0.2-0.2-0.4-0.4-0.6c-0.1-0.1-0.1-0.2-0.2-0.3c-0.1-0.2-0.2-0.3-0.3-0.5c-0.1-0.1-0.1-0.2-0.2-0.3
			c-0.1-0.1-0.2-0.3-0.2-0.4c-0.1-0.1-0.1-0.2-0.1-0.2c-0.1-0.1-0.1-0.2-0.2-0.3c0-0.1-0.1-0.1-0.1-0.2c-0.1-0.1-0.1-0.2-0.2-0.3
			c0-0.1-0.1-0.1-0.1-0.2c-0.1-0.1-0.1-0.2-0.2-0.3c0,0,0-0.1-0.1-0.1c-0.1-0.1-0.1-0.2-0.2-0.3c-19.9-37.6-27.2-73.6-9.8-113.9
			c29-67.4,107.3-93.9,168.3-123c44-21.1,93.6-44.1,123.9-84.3c40.1-53.3,27.6-132.1-2.7-187.1C379.7,94.9,104.8,84.5,0,229.3v28.4
			C76.1,178.6,189,158.6,293.1,196.3z"/>
		<linearGradient id="SVGID_24_" gradientUnits="userSpaceOnUse" x1="248.2409" y1="847.0093" x2="248.2409" y2="127.5139">
			<stop  offset="0" style="stop-color:#F5CF00"/>
			<stop  offset="0.7421" style="stop-color:#FA4866"/>
		</linearGradient>
		<path class="st23" d="M293.1,196.3c88.2,31.9,153.5,133.2,109.3,226.5c-34.2,72.1-147,83.5-213,110.5
			c-43.1,17.6-74.4,39.5-91.6,85.2c-0.3,0.9-0.7,1.9-1,2.8c-0.1,0.3-0.2,0.6-0.3,1c-0.2,0.6-0.4,1.2-0.6,1.9
			c-0.1,0.4-0.2,0.8-0.3,1.1c-0.2,0.6-0.3,1.1-0.5,1.7c-0.1,0.4-0.2,0.8-0.3,1.2c-0.1,0.5-0.3,1.1-0.4,1.6c-0.1,0.4-0.2,0.8-0.3,1.3
			c-0.1,0.5-0.2,1.1-0.4,1.6c-0.1,0.4-0.2,0.9-0.2,1.3c-0.1,0.5-0.2,1.1-0.3,1.6c-0.1,0.4-0.1,0.9-0.2,1.3c-0.1,0.5-0.2,1.1-0.2,1.6
			c-0.1,0.4-0.1,0.9-0.2,1.3c-0.1,0.5-0.1,1.1-0.2,1.6c-0.1,0.4-0.1,0.9-0.1,1.3c-0.1,0.5-0.1,1-0.2,1.6c0,0.4-0.1,0.9-0.1,1.3
			c0,0.5-0.1,1-0.1,1.6c0,0.5,0,0.9-0.1,1.4c0,0.5-0.1,1.1-0.1,1.6c0,0.5,0,0.9,0,1.4c0,0.5,0,1.1,0,1.6c0,0.5,0,0.9,0,1.4
			c0,0.5,0,1.1,0,1.6c0,0.5,0,0.9,0,1.4c0,0.5,0,1.1,0,1.6c0,0.5,0,0.9,0.1,1.4c0,0.5,0.1,1.1,0.1,1.6c0,0.5,0.1,0.9,0.1,1.4
			c0,0.5,0.1,1.1,0.1,1.6c0,0.5,0.1,0.9,0.1,1.4c0.1,0.5,0.1,1.1,0.2,1.6c0,0.5,0.1,0.9,0.2,1.4c0.1,0.5,0.1,1.1,0.2,1.6
			c0.1,0.5,0.1,0.9,0.2,1.4c0.1,0.5,0.2,1.1,0.2,1.6c0.1,0.4,0.1,0.9,0.2,1.3c0.1,0.6,0.2,1.1,0.3,1.7c0.1,0.4,0.2,0.9,0.2,1.3
			c0.1,0.6,0.2,1.1,0.3,1.7c0.1,0.4,0.2,0.9,0.3,1.3c0.1,0.6,0.2,1.1,0.3,1.7c0.1,0.4,0.2,0.9,0.3,1.3c0.1,0.6,0.2,1.1,0.4,1.7
			c0.1,0.4,0.2,0.9,0.3,1.3c0.1,0.6,0.3,1.1,0.4,1.7c0.1,0.4,0.2,0.9,0.3,1.3c0.1,0.6,0.3,1.2,0.4,1.7c0.1,0.4,0.2,0.8,0.3,1.3
			c0.2,0.6,0.3,1.2,0.5,1.8c0.1,0.4,0.2,0.8,0.3,1.3c0.2,0.6,0.3,1.2,0.5,1.8c0.1,0.4,0.2,0.8,0.4,1.2c0.2,0.6,0.4,1.2,0.5,1.8
			c0.1,0.4,0.2,0.8,0.4,1.2c0.2,0.6,0.4,1.2,0.6,1.8c0.1,0.4,0.2,0.8,0.4,1.2c0.2,0.6,0.4,1.2,0.6,1.9c0.1,0.4,0.2,0.7,0.4,1.1
			c0.2,0.6,0.4,1.3,0.7,1.9c0.1,0.4,0.2,0.7,0.4,1.1c0.2,0.7,0.5,1.3,0.7,2c0.1,0.3,0.2,0.6,0.4,1c0.3,0.7,0.5,1.4,0.8,2.1
			c0.1,0.3,0.2,0.6,0.3,0.9c0.3,0.7,0.6,1.5,0.8,2.2c0.1,0.3,0.2,0.5,0.3,0.8c0.3,0.8,0.6,1.6,0.9,2.4c0.1,0.2,0.1,0.4,0.2,0.6
			c0.4,0.9,0.7,1.8,1.1,2.7c0,0.1,0.1,0.2,0.1,0.3c2.9,7,6,13.9,9.2,20.7c0,0,0,0.1,0,0.1c0.4,0.9,0.9,1.9,1.3,2.8
			c0,0.1,0.1,0.2,0.1,0.3c0.4,0.9,0.8,1.7,1.3,2.6c0,0.1,0.1,0.2,0.2,0.3c0.4,0.9,0.8,1.7,1.3,2.6c0.1,0.1,0.1,0.3,0.2,0.4
			c0.4,0.8,0.8,1.6,1.2,2.5c0.1,0.1,0.1,0.3,0.2,0.4c0.4,0.8,0.8,1.6,1.2,2.4c0.1,0.1,0.1,0.2,0.2,0.4c0.4,0.8,0.8,1.7,1.3,2.5
			c0,0.1,0.1,0.2,0.1,0.3c0.4,0.8,0.9,1.7,1.3,2.5c0,0.1,0.1,0.1,0.1,0.2c0.4,0.9,0.9,1.7,1.3,2.6c0,0,0,0.1,0.1,0.1
			c5.5,10.6,10.9,20.7,15.9,30.3H212c-1-1.5-2-3-3-4.6c-0.7-1.1-1.5-2.2-2.2-3.3c-0.5-0.8-1.1-1.6-1.6-2.4c-0.1-0.2-0.3-0.4-0.4-0.6
			c-0.1-0.2-0.2-0.3-0.3-0.5c-0.3-0.4-0.5-0.8-0.8-1.2c-0.1-0.2-0.2-0.3-0.3-0.4c-0.2-0.3-0.4-0.6-0.6-1c-0.2-0.3-0.3-0.5-0.5-0.8
			c-0.1-0.2-0.2-0.4-0.4-0.6c-0.2-0.3-0.4-0.7-0.7-1c-0.1-0.2-0.2-0.3-0.3-0.5c-0.2-0.3-0.4-0.7-0.7-1c0-0.1-0.1-0.1-0.1-0.2
			c-0.4-0.6-0.8-1.3-1.3-1.9c-0.1-0.2-0.3-0.4-0.4-0.6c-0.1-0.1-0.1-0.2-0.2-0.2c-0.3-0.4-0.5-0.8-0.8-1.2c-0.1-0.1-0.1-0.2-0.2-0.3
			c-0.2-0.4-0.5-0.7-0.7-1c-0.1-0.1-0.2-0.2-0.2-0.4c-0.2-0.3-0.4-0.6-0.6-0.9c-0.1-0.2-0.2-0.4-0.4-0.5c-0.1-0.2-0.3-0.4-0.4-0.6
			c-0.1-0.2-0.3-0.4-0.4-0.6c-0.1-0.2-0.3-0.4-0.4-0.6c-0.1-0.2-0.2-0.3-0.3-0.5c-0.2-0.2-0.3-0.5-0.5-0.7c-0.1-0.1-0.2-0.3-0.3-0.4
			c-0.1-0.2-0.3-0.4-0.4-0.6c-0.1-0.2-0.2-0.3-0.3-0.5c-0.2-0.3-0.4-0.6-0.6-0.9c0-0.1-0.1-0.1-0.1-0.2c-0.2-0.3-0.3-0.5-0.5-0.8
			c-0.1-0.1-0.1-0.2-0.2-0.3c-0.1-0.2-0.2-0.4-0.4-0.6c-0.1-0.1-0.1-0.2-0.2-0.3c-0.1-0.2-0.2-0.3-0.3-0.5c-0.1-0.1-0.1-0.2-0.2-0.3
			c-0.1-0.1-0.2-0.3-0.2-0.4c-0.1-0.1-0.1-0.2-0.1-0.2c-0.1-0.1-0.1-0.2-0.2-0.3c0-0.1-0.1-0.1-0.1-0.2c-0.1-0.1-0.1-0.2-0.2-0.3
			c0-0.1-0.1-0.1-0.1-0.2c-0.1-0.1-0.1-0.2-0.2-0.3c0,0,0-0.1-0.1-0.1c-0.1-0.1-0.1-0.2-0.2-0.3c-19.9-37.6-27.2-73.6-9.8-113.9
			c29-67.4,107.3-93.9,168.3-123c44-21.1,93.6-44.1,123.9-84.3c40.1-53.3,27.6-132.1-2.7-187.1C379.7,94.9,104.8,84.5,0,229.3v28.4
			C76.1,178.6,189,158.6,293.1,196.3z"/>
		<linearGradient id="SVGID_25_" gradientUnits="userSpaceOnUse" x1="208.3015" y1="811.3527" x2="208.3015" y2="-4.6294">
			<stop  offset="0" style="stop-color:#FAF43D"/>
			<stop  offset="1" style="stop-color:#E33766"/>
		</linearGradient>
		<path class="st24" d="M129,769.7c0,0,0-0.1-0.1-0.1c-0.4-0.9-0.9-1.7-1.3-2.6c0-0.1-0.1-0.1-0.1-0.2c-0.4-0.8-0.9-1.7-1.3-2.5
			c0-0.1-0.1-0.2-0.1-0.3c-0.4-0.8-0.8-1.7-1.3-2.5c-0.1-0.1-0.1-0.2-0.2-0.4c-0.4-0.8-0.8-1.6-1.2-2.4c-0.1-0.1-0.1-0.3-0.2-0.4
			c-0.4-0.8-0.8-1.6-1.2-2.5c-0.1-0.1-0.1-0.3-0.2-0.4c-0.4-0.9-0.8-1.7-1.3-2.6c0-0.1-0.1-0.2-0.2-0.3c-0.4-0.9-0.8-1.7-1.3-2.6
			c0-0.1-0.1-0.2-0.1-0.3c-0.4-0.9-0.9-1.9-1.3-2.8c0,0,0-0.1,0-0.1c-3.2-6.8-6.3-13.7-9.2-20.7c0-0.1-0.1-0.2-0.1-0.3
			c-0.4-0.9-0.7-1.8-1.1-2.7c-0.1-0.2-0.1-0.4-0.2-0.6c-0.3-0.8-0.6-1.6-0.9-2.4c-0.1-0.3-0.2-0.5-0.3-0.8c-0.3-0.7-0.6-1.5-0.8-2.2
			c-0.1-0.3-0.2-0.6-0.3-0.9c-0.3-0.7-0.5-1.4-0.8-2.1c-0.1-0.3-0.2-0.6-0.4-1c-0.2-0.7-0.5-1.3-0.7-2c-0.1-0.4-0.2-0.7-0.4-1.1
			c-0.2-0.6-0.4-1.3-0.7-1.9c-0.1-0.4-0.2-0.7-0.4-1.1c-0.2-0.6-0.4-1.2-0.6-1.9c-0.1-0.4-0.2-0.8-0.4-1.2c-0.2-0.6-0.4-1.2-0.6-1.8
			c-0.1-0.4-0.2-0.8-0.4-1.2c-0.2-0.6-0.4-1.2-0.5-1.8c-0.1-0.4-0.2-0.8-0.4-1.2c-0.2-0.6-0.3-1.2-0.5-1.8c-0.1-0.4-0.2-0.8-0.3-1.3
			c-0.2-0.6-0.3-1.2-0.5-1.8c-0.1-0.4-0.2-0.8-0.3-1.3c-0.1-0.6-0.3-1.2-0.4-1.7c-0.1-0.4-0.2-0.9-0.3-1.3c-0.1-0.6-0.3-1.1-0.4-1.7
			c-0.1-0.4-0.2-0.9-0.3-1.3c-0.1-0.6-0.3-1.1-0.4-1.7c-0.1-0.4-0.2-0.9-0.3-1.3c-0.1-0.6-0.2-1.1-0.3-1.7c-0.1-0.4-0.2-0.9-0.3-1.3
			c-0.1-0.6-0.2-1.1-0.3-1.7c-0.1-0.4-0.2-0.9-0.2-1.3c-0.1-0.6-0.2-1.1-0.3-1.7c-0.1-0.4-0.1-0.9-0.2-1.3c-0.1-0.5-0.2-1.1-0.2-1.6
			c-0.1-0.5-0.1-0.9-0.2-1.4c-0.1-0.5-0.1-1.1-0.2-1.6c-0.1-0.5-0.1-0.9-0.2-1.4c-0.1-0.5-0.1-1.1-0.2-1.6c0-0.5-0.1-0.9-0.1-1.4
			c0-0.5-0.1-1.1-0.1-1.6c0-0.5-0.1-0.9-0.1-1.4c0-0.5-0.1-1.1-0.1-1.6c0-0.5,0-0.9-0.1-1.4c0-0.5,0-1.1,0-1.6c0-0.5,0-0.9,0-1.4
			c0-0.5,0-1.1,0-1.6c0-0.5,0-0.9,0-1.4c0-0.5,0-1.1,0-1.6c0-0.5,0-0.9,0-1.4c0-0.5,0-1.1,0.1-1.6c0-0.5,0-0.9,0.1-1.4
			c0-0.5,0.1-1.1,0.1-1.6c0-0.4,0.1-0.9,0.1-1.3c0-0.5,0.1-1.1,0.2-1.6c0-0.4,0.1-0.9,0.1-1.3c0.1-0.5,0.1-1.1,0.2-1.6
			c0.1-0.4,0.1-0.9,0.2-1.3c0.1-0.5,0.2-1.1,0.2-1.6c0.1-0.4,0.1-0.9,0.2-1.3c0.1-0.5,0.2-1.1,0.3-1.6c0.1-0.4,0.2-0.9,0.2-1.3
			c0.1-0.5,0.2-1.1,0.4-1.6c0.1-0.4,0.2-0.8,0.3-1.3c0.1-0.5,0.3-1.1,0.4-1.6c0.1-0.4,0.2-0.8,0.3-1.2c0.2-0.6,0.3-1.1,0.5-1.7
			c0.1-0.4,0.2-0.8,0.3-1.1c0.2-0.6,0.4-1.2,0.6-1.9c0.1-0.3,0.2-0.6,0.3-1c0.3-0.9,0.6-1.9,1-2.8c17.2-45.8,48.5-67.6,91.6-85.2
			c66-27,178.9-38.4,213-110.5c44.2-93.3-21.1-194.5-109.3-226.5C189,158.6,76.1,178.6,0,257.7v31.5c47.1-30.8,98.9-55.2,155.8-58.3
			c76.8-4.1,178.2,28.1,161.2,126.3c-15.9,92.3-111.5,93.2-180.5,118.9C84.6,495.4,31,532.1,0,580.8V800h144.9
			C139.9,790.5,134.5,780.3,129,769.7z"/>
		<linearGradient id="SVGID_26_" gradientUnits="userSpaceOnUse" x1="208.3015" y1="838.3831" x2="208.3015" y2="34.0385">
			<stop  offset="0" style="stop-color:#FFDA2A"/>
			<stop  offset="1" style="stop-color:#FF5773"/>
		</linearGradient>
		<path class="st25" d="M129,769.7c0,0,0-0.1-0.1-0.1c-0.4-0.9-0.9-1.7-1.3-2.6c0-0.1-0.1-0.1-0.1-0.2c-0.4-0.8-0.9-1.7-1.3-2.5
			c0-0.1-0.1-0.2-0.1-0.3c-0.4-0.8-0.8-1.7-1.3-2.5c-0.1-0.1-0.1-0.2-0.2-0.4c-0.4-0.8-0.8-1.6-1.2-2.4c-0.1-0.1-0.1-0.3-0.2-0.4
			c-0.4-0.8-0.8-1.6-1.2-2.5c-0.1-0.1-0.1-0.3-0.2-0.4c-0.4-0.9-0.8-1.7-1.3-2.6c0-0.1-0.1-0.2-0.2-0.3c-0.4-0.9-0.8-1.7-1.3-2.6
			c0-0.1-0.1-0.2-0.1-0.3c-0.4-0.9-0.9-1.9-1.3-2.8c0,0,0-0.1,0-0.1c-3.2-6.8-6.3-13.7-9.2-20.7c0-0.1-0.1-0.2-0.1-0.3
			c-0.4-0.9-0.7-1.8-1.1-2.7c-0.1-0.2-0.1-0.4-0.2-0.6c-0.3-0.8-0.6-1.6-0.9-2.4c-0.1-0.3-0.2-0.5-0.3-0.8c-0.3-0.7-0.6-1.5-0.8-2.2
			c-0.1-0.3-0.2-0.6-0.3-0.9c-0.3-0.7-0.5-1.4-0.8-2.1c-0.1-0.3-0.2-0.6-0.4-1c-0.2-0.7-0.5-1.3-0.7-2c-0.1-0.4-0.2-0.7-0.4-1.1
			c-0.2-0.6-0.4-1.3-0.7-1.9c-0.1-0.4-0.2-0.7-0.4-1.1c-0.2-0.6-0.4-1.2-0.6-1.9c-0.1-0.4-0.2-0.8-0.4-1.2c-0.2-0.6-0.4-1.2-0.6-1.8
			c-0.1-0.4-0.2-0.8-0.4-1.2c-0.2-0.6-0.4-1.2-0.5-1.8c-0.1-0.4-0.2-0.8-0.4-1.2c-0.2-0.6-0.3-1.2-0.5-1.8c-0.1-0.4-0.2-0.8-0.3-1.3
			c-0.2-0.6-0.3-1.2-0.5-1.8c-0.1-0.4-0.2-0.8-0.3-1.3c-0.1-0.6-0.3-1.2-0.4-1.7c-0.1-0.4-0.2-0.9-0.3-1.3c-0.1-0.6-0.3-1.1-0.4-1.7
			c-0.1-0.4-0.2-0.9-0.3-1.3c-0.1-0.6-0.3-1.1-0.4-1.7c-0.1-0.4-0.2-0.9-0.3-1.3c-0.1-0.6-0.2-1.1-0.3-1.7c-0.1-0.4-0.2-0.9-0.3-1.3
			c-0.1-0.6-0.2-1.1-0.3-1.7c-0.1-0.4-0.2-0.9-0.2-1.3c-0.1-0.6-0.2-1.1-0.3-1.7c-0.1-0.4-0.1-0.9-0.2-1.3c-0.1-0.5-0.2-1.1-0.2-1.6
			c-0.1-0.5-0.1-0.9-0.2-1.4c-0.1-0.5-0.1-1.1-0.2-1.6c-0.1-0.5-0.1-0.9-0.2-1.4c-0.1-0.5-0.1-1.1-0.2-1.6c0-0.5-0.1-0.9-0.1-1.4
			c0-0.5-0.1-1.1-0.1-1.6c0-0.5-0.1-0.9-0.1-1.4c0-0.5-0.1-1.1-0.1-1.6c0-0.5,0-0.9-0.1-1.4c0-0.5,0-1.1,0-1.6c0-0.5,0-0.9,0-1.4
			c0-0.5,0-1.1,0-1.6c0-0.5,0-0.9,0-1.4c0-0.5,0-1.1,0-1.6c0-0.5,0-0.9,0-1.4c0-0.5,0-1.1,0.1-1.6c0-0.5,0-0.9,0.1-1.4
			c0-0.5,0.1-1.1,0.1-1.6c0-0.4,0.1-0.9,0.1-1.3c0-0.5,0.1-1.1,0.2-1.6c0-0.4,0.1-0.9,0.1-1.3c0.1-0.5,0.1-1.1,0.2-1.6
			c0.1-0.4,0.1-0.9,0.2-1.3c0.1-0.5,0.2-1.1,0.2-1.6c0.1-0.4,0.1-0.9,0.2-1.3c0.1-0.5,0.2-1.1,0.3-1.6c0.1-0.4,0.2-0.9,0.2-1.3
			c0.1-0.5,0.2-1.1,0.4-1.6c0.1-0.4,0.2-0.8,0.3-1.3c0.1-0.5,0.3-1.1,0.4-1.6c0.1-0.4,0.2-0.8,0.3-1.2c0.2-0.6,0.3-1.1,0.5-1.7
			c0.1-0.4,0.2-0.8,0.3-1.1c0.2-0.6,0.4-1.2,0.6-1.9c0.1-0.3,0.2-0.6,0.3-1c0.3-0.9,0.6-1.9,1-2.8c17.2-45.8,48.5-67.6,91.6-85.2
			c66-27,178.9-38.4,213-110.5c44.2-93.3-21.1-194.5-109.3-226.5C189,158.6,76.1,178.6,0,257.7v31.5c47.1-30.8,98.9-55.2,155.8-58.3
			c76.8-4.1,178.2,28.1,161.2,126.3c-15.9,92.3-111.5,93.2-180.5,118.9C84.6,495.4,31,532.1,0,580.8V800h144.9
			C139.9,790.5,134.5,780.3,129,769.7z"/>
		<linearGradient id="SVGID_27_" gradientUnits="userSpaceOnUse" x1="208.3015" y1="847.0093" x2="208.3015" y2="127.5139">
			<stop  offset="0" style="stop-color:#F5CF00"/>
			<stop  offset="0.7421" style="stop-color:#FA4866"/>
		</linearGradient>
		<path class="st26" d="M129,769.7c0,0,0-0.1-0.1-0.1c-0.4-0.9-0.9-1.7-1.3-2.6c0-0.1-0.1-0.1-0.1-0.2c-0.4-0.8-0.9-1.7-1.3-2.5
			c0-0.1-0.1-0.2-0.1-0.3c-0.4-0.8-0.8-1.7-1.3-2.5c-0.1-0.1-0.1-0.2-0.2-0.4c-0.4-0.8-0.8-1.6-1.2-2.4c-0.1-0.1-0.1-0.3-0.2-0.4
			c-0.4-0.8-0.8-1.6-1.2-2.5c-0.1-0.1-0.1-0.3-0.2-0.4c-0.4-0.9-0.8-1.7-1.3-2.6c0-0.1-0.1-0.2-0.2-0.3c-0.4-0.9-0.8-1.7-1.3-2.6
			c0-0.1-0.1-0.2-0.1-0.3c-0.4-0.9-0.9-1.9-1.3-2.8c0,0,0-0.1,0-0.1c-3.2-6.8-6.3-13.7-9.2-20.7c0-0.1-0.1-0.2-0.1-0.3
			c-0.4-0.9-0.7-1.8-1.1-2.7c-0.1-0.2-0.1-0.4-0.2-0.6c-0.3-0.8-0.6-1.6-0.9-2.4c-0.1-0.3-0.2-0.5-0.3-0.8c-0.3-0.7-0.6-1.5-0.8-2.2
			c-0.1-0.3-0.2-0.6-0.3-0.9c-0.3-0.7-0.5-1.4-0.8-2.1c-0.1-0.3-0.2-0.6-0.4-1c-0.2-0.7-0.5-1.3-0.7-2c-0.1-0.4-0.2-0.7-0.4-1.1
			c-0.2-0.6-0.4-1.3-0.7-1.9c-0.1-0.4-0.2-0.7-0.4-1.1c-0.2-0.6-0.4-1.2-0.6-1.9c-0.1-0.4-0.2-0.8-0.4-1.2c-0.2-0.6-0.4-1.2-0.6-1.8
			c-0.1-0.4-0.2-0.8-0.4-1.2c-0.2-0.6-0.4-1.2-0.5-1.8c-0.1-0.4-0.2-0.8-0.4-1.2c-0.2-0.6-0.3-1.2-0.5-1.8c-0.1-0.4-0.2-0.8-0.3-1.3
			c-0.2-0.6-0.3-1.2-0.5-1.8c-0.1-0.4-0.2-0.8-0.3-1.3c-0.1-0.6-0.3-1.2-0.4-1.7c-0.1-0.4-0.2-0.9-0.3-1.3c-0.1-0.6-0.3-1.1-0.4-1.7
			c-0.1-0.4-0.2-0.9-0.3-1.3c-0.1-0.6-0.3-1.1-0.4-1.7c-0.1-0.4-0.2-0.9-0.3-1.3c-0.1-0.6-0.2-1.1-0.3-1.7c-0.1-0.4-0.2-0.9-0.3-1.3
			c-0.1-0.6-0.2-1.1-0.3-1.7c-0.1-0.4-0.2-0.9-0.2-1.3c-0.1-0.6-0.2-1.1-0.3-1.7c-0.1-0.4-0.1-0.9-0.2-1.3c-0.1-0.5-0.2-1.1-0.2-1.6
			c-0.1-0.5-0.1-0.9-0.2-1.4c-0.1-0.5-0.1-1.1-0.2-1.6c-0.1-0.5-0.1-0.9-0.2-1.4c-0.1-0.5-0.1-1.1-0.2-1.6c0-0.5-0.1-0.9-0.1-1.4
			c0-0.5-0.1-1.1-0.1-1.6c0-0.5-0.1-0.9-0.1-1.4c0-0.5-0.1-1.1-0.1-1.6c0-0.5,0-0.9-0.1-1.4c0-0.5,0-1.1,0-1.6c0-0.5,0-0.9,0-1.4
			c0-0.5,0-1.1,0-1.6c0-0.5,0-0.9,0-1.4c0-0.5,0-1.1,0-1.6c0-0.5,0-0.9,0-1.4c0-0.5,0-1.1,0.1-1.6c0-0.5,0-0.9,0.1-1.4
			c0-0.5,0.1-1.1,0.1-1.6c0-0.4,0.1-0.9,0.1-1.3c0-0.5,0.1-1.1,0.2-1.6c0-0.4,0.1-0.9,0.1-1.3c0.1-0.5,0.1-1.1,0.2-1.6
			c0.1-0.4,0.1-0.9,0.2-1.3c0.1-0.5,0.2-1.1,0.2-1.6c0.1-0.4,0.1-0.9,0.2-1.3c0.1-0.5,0.2-1.1,0.3-1.6c0.1-0.4,0.2-0.9,0.2-1.3
			c0.1-0.5,0.2-1.1,0.4-1.6c0.1-0.4,0.2-0.8,0.3-1.3c0.1-0.5,0.3-1.1,0.4-1.6c0.1-0.4,0.2-0.8,0.3-1.2c0.2-0.6,0.3-1.1,0.5-1.7
			c0.1-0.4,0.2-0.8,0.3-1.1c0.2-0.6,0.4-1.2,0.6-1.9c0.1-0.3,0.2-0.6,0.3-1c0.3-0.9,0.6-1.9,1-2.8c17.2-45.8,48.5-67.6,91.6-85.2
			c66-27,178.9-38.4,213-110.5c44.2-93.3-21.1-194.5-109.3-226.5C189,158.6,76.1,178.6,0,257.7v31.5c47.1-30.8,98.9-55.2,155.8-58.3
			c76.8-4.1,178.2,28.1,161.2,126.3c-15.9,92.3-111.5,93.2-180.5,118.9C84.6,495.4,31,532.1,0,580.8V800h144.9
			C139.9,790.5,134.5,780.3,129,769.7z"/>
		<linearGradient id="SVGID_28_" gradientUnits="userSpaceOnUse" x1="208.3015" y1="804" x2="208.3015" y2="177.846">
			<stop  offset="0" style="stop-color:#F52455"/>
			<stop  offset="1" style="stop-color:#FFC840"/>
		</linearGradient>
		<path class="st27" d="M129,769.7c0,0,0-0.1-0.1-0.1c-0.4-0.9-0.9-1.7-1.3-2.6c0-0.1-0.1-0.1-0.1-0.2c-0.4-0.8-0.9-1.7-1.3-2.5
			c0-0.1-0.1-0.2-0.1-0.3c-0.4-0.8-0.8-1.7-1.3-2.5c-0.1-0.1-0.1-0.2-0.2-0.4c-0.4-0.8-0.8-1.6-1.2-2.4c-0.1-0.1-0.1-0.3-0.2-0.4
			c-0.4-0.8-0.8-1.6-1.2-2.5c-0.1-0.1-0.1-0.3-0.2-0.4c-0.4-0.9-0.8-1.7-1.3-2.6c0-0.1-0.1-0.2-0.2-0.3c-0.4-0.9-0.8-1.7-1.3-2.6
			c0-0.1-0.1-0.2-0.1-0.3c-0.4-0.9-0.9-1.9-1.3-2.8c0,0,0-0.1,0-0.1c-3.2-6.8-6.3-13.7-9.2-20.7c0-0.1-0.1-0.2-0.1-0.3
			c-0.4-0.9-0.7-1.8-1.1-2.7c-0.1-0.2-0.1-0.4-0.2-0.6c-0.3-0.8-0.6-1.6-0.9-2.4c-0.1-0.3-0.2-0.5-0.3-0.8c-0.3-0.7-0.6-1.5-0.8-2.2
			c-0.1-0.3-0.2-0.6-0.3-0.9c-0.3-0.7-0.5-1.4-0.8-2.1c-0.1-0.3-0.2-0.6-0.4-1c-0.2-0.7-0.5-1.3-0.7-2c-0.1-0.4-0.2-0.7-0.4-1.1
			c-0.2-0.6-0.4-1.3-0.7-1.9c-0.1-0.4-0.2-0.7-0.4-1.1c-0.2-0.6-0.4-1.2-0.6-1.9c-0.1-0.4-0.2-0.8-0.4-1.2c-0.2-0.6-0.4-1.2-0.6-1.8
			c-0.1-0.4-0.2-0.8-0.4-1.2c-0.2-0.6-0.4-1.2-0.5-1.8c-0.1-0.4-0.2-0.8-0.4-1.2c-0.2-0.6-0.3-1.2-0.5-1.8c-0.1-0.4-0.2-0.8-0.3-1.3
			c-0.2-0.6-0.3-1.2-0.5-1.8c-0.1-0.4-0.2-0.8-0.3-1.3c-0.1-0.6-0.3-1.2-0.4-1.7c-0.1-0.4-0.2-0.9-0.3-1.3c-0.1-0.6-0.3-1.1-0.4-1.7
			c-0.1-0.4-0.2-0.9-0.3-1.3c-0.1-0.6-0.3-1.1-0.4-1.7c-0.1-0.4-0.2-0.9-0.3-1.3c-0.1-0.6-0.2-1.1-0.3-1.7c-0.1-0.4-0.2-0.9-0.3-1.3
			c-0.1-0.6-0.2-1.1-0.3-1.7c-0.1-0.4-0.2-0.9-0.2-1.3c-0.1-0.6-0.2-1.1-0.3-1.7c-0.1-0.4-0.1-0.9-0.2-1.3c-0.1-0.5-0.2-1.1-0.2-1.6
			c-0.1-0.5-0.1-0.9-0.2-1.4c-0.1-0.5-0.1-1.1-0.2-1.6c-0.1-0.5-0.1-0.9-0.2-1.4c-0.1-0.5-0.1-1.1-0.2-1.6c0-0.5-0.1-0.9-0.1-1.4
			c0-0.5-0.1-1.1-0.1-1.6c0-0.5-0.1-0.9-0.1-1.4c0-0.5-0.1-1.1-0.1-1.6c0-0.5,0-0.9-0.1-1.4c0-0.5,0-1.1,0-1.6c0-0.5,0-0.9,0-1.4
			c0-0.5,0-1.1,0-1.6c0-0.5,0-0.9,0-1.4c0-0.5,0-1.1,0-1.6c0-0.5,0-0.9,0-1.4c0-0.5,0-1.1,0.1-1.6c0-0.5,0-0.9,0.1-1.4
			c0-0.5,0.1-1.1,0.1-1.6c0-0.4,0.1-0.9,0.1-1.3c0-0.5,0.1-1.1,0.2-1.6c0-0.4,0.1-0.9,0.1-1.3c0.1-0.5,0.1-1.1,0.2-1.6
			c0.1-0.4,0.1-0.9,0.2-1.3c0.1-0.5,0.2-1.1,0.2-1.6c0.1-0.4,0.1-0.9,0.2-1.3c0.1-0.5,0.2-1.1,0.3-1.6c0.1-0.4,0.2-0.9,0.2-1.3
			c0.1-0.5,0.2-1.1,0.4-1.6c0.1-0.4,0.2-0.8,0.3-1.3c0.1-0.5,0.3-1.1,0.4-1.6c0.1-0.4,0.2-0.8,0.3-1.2c0.2-0.6,0.3-1.1,0.5-1.7
			c0.1-0.4,0.2-0.8,0.3-1.1c0.2-0.6,0.4-1.2,0.6-1.9c0.1-0.3,0.2-0.6,0.3-1c0.3-0.9,0.6-1.9,1-2.8c17.2-45.8,48.5-67.6,91.6-85.2
			c66-27,178.9-38.4,213-110.5c44.2-93.3-21.1-194.5-109.3-226.5C189,158.6,76.1,178.6,0,257.7v31.5c47.1-30.8,98.9-55.2,155.8-58.3
			c76.8-4.1,178.2,28.1,161.2,126.3c-15.9,92.3-111.5,93.2-180.5,118.9C84.6,495.4,31,532.1,0,580.8V800h144.9
			C139.9,790.5,134.5,780.3,129,769.7z"/>
		<linearGradient id="SVGID_29_" gradientUnits="userSpaceOnUse" x1="445.0088" y1="811.3508" x2="445.0088" y2="-4.4916">
			<stop  offset="0" style="stop-color:#FAF43D"/>
			<stop  offset="1" style="stop-color:#E33766"/>
		</linearGradient>
		<path class="st28" d="M885.7,249.6c-17.8-98.9-72.8-161.2-158.5-209.5c-30.5-17.1-62.9-36.9-97.8-40c-0.5,0-1.1-0.1-1.6-0.1H304.3
			c-7.8,0-15.6,0-23.3,0C187.3,0,93.7,0,0,0v179.7C39,121,96.8,68.2,164.6,48.8c111.3-31.9,272.6-12.3,364.2,61.4
			c91.9,74,162.6,235.3,71.3,334c-52.8,57.1-123.2,76.8-191.3,108.4c-42.8,19.9-81.5,39.1-114.2,73.4
			c-21.2,22.2-38.7,41.5-47.3,71.6c-0.3,1.2-0.7,2.4-1,3.5c-0.1,0.4-0.2,0.8-0.3,1.2c-0.2,0.8-0.4,1.6-0.6,2.3
			c-0.1,0.5-0.2,0.9-0.3,1.4c-0.2,0.7-0.3,1.4-0.4,2.1c-0.1,0.5-0.2,1-0.3,1.4c-0.1,0.7-0.3,1.3-0.4,2c-0.1,0.5-0.2,1-0.2,1.5
			c-0.1,0.7-0.2,1.3-0.3,2c-0.1,0.5-0.1,1-0.2,1.5c-0.1,0.6-0.2,1.3-0.3,1.9c-0.1,0.5-0.1,1-0.2,1.4c-0.1,0.6-0.1,1.3-0.2,1.9
			c0,0.5-0.1,0.9-0.1,1.4c-0.1,0.6-0.1,1.3-0.2,1.9c0,0.5-0.1,0.9-0.1,1.4c0,0.7-0.1,1.3-0.1,2c0,0.4,0,0.9-0.1,1.3
			c0,0.7-0.1,1.3-0.1,2c0,0.4,0,0.8,0,1.2c0,0.7,0,1.4,0,2.1c0,0.4,0,0.8,0,1.1c0,0.7,0,1.5,0,2.2c0,0.3,0,0.7,0,1
			c0,0.8,0,1.6,0,2.4c0,0.3,0,0.5,0,0.8c0,0.9,0,1.8,0.1,2.7c0,0.2,0,0.3,0,0.5c0.7,17.9,3.3,35.4,3.8,54.1h94.9
			c-11.7-15.6-24.6-31.1-27.6-50.9c-6.7-44.8,28.9-87,62.7-111.7c70-51.2,162.4-76.5,245.1-99c42.2-11.4,85.5-15.2,125.6-33.8
			C851.6,455.9,906.4,364.8,885.7,249.6z"/>
	</g>
	<linearGradient id="SVGID_30_" gradientUnits="userSpaceOnUse" x1="528.7122" y1="601.8506" x2="791.5598" y2="915.1002">
		<stop  offset="0" style="stop-color:#00CC9C"/>
		<stop  offset="1" style="stop-color:#DA78E9"/>
	</linearGradient>
	<path class="st29" d="M928.7,800c-19-91-99.1-154.6-182.8-183.5c-92.2-31.8-215.2-46.6-280.1,45.1c-27.9,39.4-29.6,92-36.4,138.4
		c145.6,0,291.1,0,436.7,0C887,800,907.9,800,928.7,800z"/>
	<linearGradient id="SVGID_31_" gradientUnits="userSpaceOnUse" x1="448.0852" y1="685.0319" x2="818.8518" y2="819.98">
		<stop  offset="0" style="stop-color:#2E3592"/>
		<stop  offset="0.574" style="stop-color:#00E9B8"/>
	</linearGradient>
	<path class="st30" d="M416.6,800c3.1-95,74.8-179,175.6-175.6c96.5,3.3,219.4,71.1,233.9,175.6C689.6,800,553.1,800,416.6,800z"/>
	<linearGradient id="SVGID_32_" gradientUnits="userSpaceOnUse" x1="570.2087" y1="709.8212" x2="703.4078" y2="868.5617">
		<stop  offset="0" style="stop-color:#4474FF"/>
		<stop  offset="1" style="stop-color:#FF5876"/>
	</linearGradient>
	<path class="st31" d="M503.3,800c20-48.6,49.4-94.7,106-97.3c73.2-3.3,138.3,35.1,175.9,97.3H503.3z"/>
	<linearGradient id="SVGID_33_" gradientUnits="userSpaceOnUse" x1="1347.9243" y1="-28.2092" x2="903.1281" y2="742.2004">
		<stop  offset="0" style="stop-color:#FFB64A"/>
		<stop  offset="0.5023" style="stop-color:#C4256C"/>
		<stop  offset="1" style="stop-color:#6B246C"/>
	</linearGradient>
	<path class="st32" d="M1004.9,801c-99.5-174,47.1-277.8,69.4-441.1c12.9-94.3-10.1-163.7-77.9-231C949.5,82.5,864.5,1.5,792.8,0
		c108.9,0,217.7,0,326.6,0c79.3,0,167.7-11.1,246.2,0c51.2,7.2,28.5-10.7,42.4,29c16.3,46.9,0,129.1,0,178.7c0,85.3,0,170.5,0,255.8
		c0,112.5,0,225,0,337.5C1273.6,801,1139.3,801,1004.9,801z"/>
	<linearGradient id="SVGID_34_" gradientUnits="userSpaceOnUse" x1="1407.2188" y1="5.4552" x2="967.33" y2="767.365">
		<stop  offset="0" style="stop-color:#E83779"/>
		<stop  offset="1" style="stop-color:#1A3495"/>
	</linearGradient>
	<path class="st33" d="M1024.7,800.5c-99.4-153.4,45.5-306.9,114.8-436.4c32.1-59.9,56.6-133.5,27.6-199.7
		C1131.1,82.3,1046.2,21.2,961.9-2c117.6,0,235.1,0,352.7,0c17.8,0,76.1-8.3,85.4,4.1c12.6,16.6,0,91.9,0,112c0,146,0,292,0,438
		c0,60.5,0,120.9,0,181.4c0,13.5,6.5,58-2.2,66.5c-7.8,7.7-63,0.1-73.7,0.1c-39.3,0-78.7,0.1-118,0.1
		C1145.6,800.3,1085.1,800.4,1024.7,800.5z"/>
	<linearGradient id="SVGID_35_" gradientUnits="userSpaceOnUse" x1="1420.7367" y1="14.4504" x2="1004.1443" y2="736.0096">
		<stop  offset="0" style="stop-color:#4A216D"/>
		<stop  offset="1" style="stop-color:#DF216D"/>
	</linearGradient>
	<path class="st34" d="M1114.5,799.7c-103.9-150.6,37.8-304.8,79.5-448.5c24.3-83.6,22.8-167.5-31.1-240.3
		C1119.5,52.3,1083.4,27.3,996.9-1c83.8,0,167.7,0,251.5,0c38.9,0,97-11.1,134.3,0c24.4,7.2,10.2-6.6,17.3,15.8
		c7.9,24.9,0,65.3,0,91.2c0,48.8,0,97.7,0,146.5c0,113.3,0,226.6,0,339.9c0,69.2,0,138.4,0,207.7
		C1304.8,799.9,1209.7,799.8,1114.5,799.7z"/>
	<linearGradient id="SVGID_36_" gradientUnits="userSpaceOnUse" x1="1465.3362" y1="383.1157" x2="1206.6252" y2="831.2163">
		<stop  offset="0" style="stop-color:#5B2A92"/>
		<stop  offset="1" style="stop-color:#CF2778"/>
	</linearGradient>
	<path class="st35" d="M1152.3,799.9c-30.1-175.6,83.8-383.7,247.7-454.5c0,151.5,0,303.1,0,454.6
		C1317.4,800,1234.9,799.9,1152.3,799.9z"/>
	<linearGradient id="SVGID_37_" gradientUnits="userSpaceOnUse" x1="1438.5533" y1="491.9995" x2="1239.8658" y2="836.1365">
		<stop  offset="0" style="stop-color:#70338D"/>
		<stop  offset="1" style="stop-color:#E53586"/>
	</linearGradient>
	<path class="st36" d="M1175.1,798.7c-13.2-127.1,107.5-285.9,223.9-329.6c0,110.3,0,220.6,0,330.8
		C1324.4,799.6,1249.7,799.2,1175.1,798.7z"/>
	<linearGradient id="SVGID_38_" gradientUnits="userSpaceOnUse" x1="1411.5264" y1="577.664" x2="1261.7362" y2="837.1082">
		<stop  offset="0" style="stop-color:#A55EC3"/>
		<stop  offset="1" style="stop-color:#FF4F9C"/>
	</linearGradient>
	<path class="st37" d="M1195,798.6c4-107,101.2-204.5,204-228.1c0,76.5,0,153,0,229.6C1331,799.5,1263,799,1195,798.6z"/>
</g>
</svg>
