<?xml version="1.0" encoding="utf-8"?>
<!-- Generator: Adobe Illustrator 19.2.0, SVG Export Plug-In . SVG Version: 6.00 Build 0)  -->
<svg version="1.1" id="Calque_1" xmlns="http://www.w3.org/2000/svg" xmlns:xlink="http://www.w3.org/1999/xlink" x="0px" y="0px"
	 viewBox="0 0 153.8 163.9" style="enable-background:new 0 0 153.8 163.9;" xml:space="preserve">
<style type="text/css">
	.st0{display:none;fill:#D1D1D1;}
	.st1{fill:#FC2648;}
	.st2{fill:url(#SVGID_1_);}
	.st3{fill:url(#SVGID_2_);}
	.st4{fill:url(#SVGID_3_);}
	.st5{fill:url(#SVGID_4_);}
	.st6{fill:url(#SVGID_5_);}
	.st7{fill:url(#SVGID_6_);}
	.st8{fill:url(#SVGID_7_);}
	.st9{fill:url(#SVGID_8_);}
	.st10{fill:url(#SVGID_9_);}
	.st11{fill:url(#SVGID_10_);}
	.st12{fill:url(#SVGID_11_);}
</style>
<path class="st0" d="M117.8,24.4c-0.3,2.9-0.4,5.8-1.1,8.6c-0.7,2.6-1.3,5.1-1.5,7.8c-0.1,1.9-0.3,4.3-1.4,5.9
	c-1.6,2.3-3.5,0.7-5-0.7c-1.8-1.8-3.8-2.2-6.2-2.8c-2.4-0.6-4.5-1.3-7.1-0.7c-4.8,1.1-9.2,3.9-12.9,7.1c-7.9,7-14.7,16-16.3,26.7
	c-0.4,2.4-0.4,4.9-0.6,7.3c-0.2,2.4-0.4,4.9,0.1,7.4c0.5,2.4,1.9,4.4,2.9,6.6c0.9,1.9,1.9,4.6,4.3,4.9c4.4,0.5,7.2-3.5,8.6-7
	c0.8-1.8,1.5-3.7,2.3-5.5c0.9-2.1,1.4-4.4,2.9-6.2c3.5-4.1,9.5-5.3,14.6-5.5c5.4-0.2,11,0.5,16.3,1.3c8.9,1.3,18.2,4.8,24.6,11.3
	c3.1,3.2,5.9,7.6,6.5,12.1c0.2,1.3,0.1,2.7,0,4c-0.1,1.4-0.7,2.6-0.7,4c0,1.4,0.3,2.7,0,4.1c-0.2,1.2-0.6,2.4-1.2,3.6
	c-0.5,0.9-1,1.8-1.5,2.7c-0.4,0.8-0.7,1.6-1.1,2.3c-0.9,1.5-2.6,2.2-4.1,0.9c-1.4-1.2-1.9-3.2-2.7-4.7c-1.2-2.2-2.8-3.8-4.9-5.2
	c-1-0.7-2-1.4-3.1-2c-1.3-0.6-2.7-0.9-4.1-1.1c-1.2-0.2-2.3-0.4-3.5-0.7c-0.8-0.2-2.1-0.6-2.8-0.1c-1.3,0.9-0.2,3.9-0.3,5.2
	c-0.2,2.7-0.6,5.4-1.3,8c-0.7,2.5-1.2,5.2-2.5,7.5c-1.3,2.3-3.2,4.3-4.8,6.3c-1.6,1.9-3.2,3.9-5,5.5c-2,1.7-4.2,2.9-6.6,3.9
	c-2.5,1-5.2,1.8-7.7,2.8c-2.5,1-4.8,2.4-7.3,3.4c-2.5,1-4.9,1.6-7.6,1.1c-1.2-0.2-2.4-0.4-3.6-0.3c-1.5,0.1-3,0.4-4.6,0.5
	c-5.8,0.6-11.5,0.5-17.2-0.3c-5.6-0.7-10.8-2.3-15.9-4.9c-4.6-2.4-9-5.1-12.7-8.8c-3.4-3.4-6-7.3-8.1-11.6c-2.3-4.6-4.1-9.5-5-14.5
	c-0.5-2.8-0.9-5.7-1.3-8.6c-0.4-2.9-0.6-5.7-0.4-8.6c0.2-2.9,0.7-5.7,0.9-8.6c0.2-2.7,0.5-5.4,0.9-8.1c0.9-5.5,2.4-10.8,4.3-16
	c1.9-5.2,4.4-10.2,7.2-15.1c1.4-2.5,2.8-5.1,4.1-7.7c1.2-2.4,2.3-4.7,3.9-6.8c2.9-4,6.4-7.9,10.3-10.9c3.9-3,8.4-5.4,12.8-7.6
	c2.2-1.1,4.4-2.2,6.6-3.3c1.1-0.6,2.2-1.2,3.3-1.8c1.3-0.7,2.6-1.1,4-1.5c5.5-1.6,10.9-3.9,16.5-4.9c1.3-0.2,2.7-0.5,4-0.4
	c1.4,0.1,2.5,0.4,3.9,0.2c1.3-0.1,2.5,0.2,3.8,0.4c1.5,0.3,3,0.5,4.4,0.9c4.7,1.2,10,2.9,13.7,6.2c1.8,1.6,3.5,3.1,4.5,5.3
	c0.5,1.1,0.9,2.1,1.1,3.2c0.1,0.6,0.2,1.2,0.3,1.8C117.6,23.1,117.5,24.4,117.8,24.4C117.7,25.6,117.7,24.4,117.8,24.4
	C117.5,27.1,117.7,24.4,117.8,24.4z M41.3,150.2c-0.2-0.1-0.4-0.2-0.6-0.2c0,0.1,0,0.2-0.1,0.2c0.8,0,1.4,0.7,2.2,0.6
	C42.5,150.1,41.9,150.4,41.3,150.2C41.1,150.1,41.8,150.3,41.3,150.2C41.1,150.1,41.8,150.3,41.3,150.2z M110.5,32
	c0.8-2.6,1.2-5.6,1.2-8.3c0-1.2-0.1-2.4-0.8-3.4c-0.8-1-1.9-1.8-2.9-2.5c-4.3-3.4-9.6-5-14.9-5.8c-6.4-1-12.5-0.4-18.6,1.7
	c-5.8,2-11.3,4.2-16.8,7c-9.1,4.6-18.6,9.9-24.6,18.5c-3.4,4.9-6.3,10.4-9,15.7C21.3,60.4,18.9,66.1,17,72c-2.2,6.8-2.9,13.9-3.5,21
	c-0.3,3.6-0.8,7.3-0.1,10.9c0.3,1.6,0.8,3.2,1,4.8c0.2,1,0.3,1.8,1.5,1.8c-2,1.4-0.5,5.4,0.2,7.1c1.1,2.8,2.6,5.1,4.2,7.7
	c1.1,1.9,2.3,3.7,3.7,5.4c1.4,1.7,3,3.1,4.8,4.4c1.8,1.3,3.6,2.5,5.5,3.7c1.9,1.3,3.7,2.5,5.9,3.3c2,0.7,4.2,1.1,6.2,1.9
	c2,0.9,3.8,1.7,6,2.1c2.1,0.4,4.3,1,6.4,1.1c2.3,0.2,4.5,0.1,6.8,0c4.7-0.3,9.4-0.4,14.1-1.4c1.2-0.2,2.3-0.5,3.5-0.7
	c1.2-0.2,2.3-0.4,3.4-1c1.2-0.6,2.3-1.3,3.5-1.9c1.3-0.7,2.7-1.5,4.2-1.5c2-0.1,4.1-1.3,5.8-2.5c1.6-1.1,3.2-2.7,4.5-4.1
	c0.3-0.3,0.5-0.6,0.7-1c0.3-0.6,0.3-0.9-0.4-1c-1.1-0.2-1.9,0.6-2.8,1.1c-0.3-1.2,1.5-3.2,2.6-3.5c-0.3,0.7-0.2,1.4,0.6,1.5
	c0.8,0.1,1.5-0.7,2-1.3c0.8-0.9,1.3-1.9,1.8-2.9c0.6-1.3,1.2-2.6,1.5-4c0.2-0.8,0.7-2.4-0.1-3c-0.5,0.7-0.9,1.6-1.8,1.9
	c-0.6,0.2-0.9,0.1-1.1-0.5c-0.3-1.4-0.1-2.9,0-4.3c0-0.6-0.2-3.1,0.3-3.2c0.3-0.1,0.7,0.5,1,0.6c1.2,0.2-0.1-1.9-0.4-2.3
	c1-0.6,0.6-1.9,0.4-2.8c-0.2-0.7-0.8-2-0.3-2.6c0.2-0.3,0.9-0.6,1.3-0.8c0.5-0.2,1,0,1.5-0.3c0.4-0.2,0.7-0.8,1.1-0.9
	c0.2,0,0.6,0.1,0.8,0.1c0.3,0,0.7-0.2,1-0.3c3.1-1.4,6.1-1.4,9.4-0.6c1.7,0.4,3.4,0.3,5.1,0.8c1.5,0.4,2.8,1.3,4,2.3
	c1.4,1.1,2.8,1.9,4.3,2.9c1.7,1,2.6,2.7,3.9,4c0.5-0.2,0.4-1.6,0.5-2c0.1-0.9,0.2-1.8,0.3-2.8c0.3-2.5,0.7-5.2,0-7.6
	c-1.3-4.6-5.8-8-9.8-10.1c-4.6-2.4-9.7-4.2-14.9-4.9c-1.3-0.2-2.6-0.2-3.8-0.4c-1.4-0.2-2.7-0.6-4.1-0.6c-1.1,0-2,0.6-3.1,0.9
	c-0.6,0.1-1.2,0.2-1.7-0.1c-0.5-0.2-0.6-0.6-0.9-1c-1.3-1.4-4.3-0.2-5.8,0.3c-1.9,0.6-1.4,2.1-1.1,3.7c-1.4-0.8-3-1-4.4,0
	c-1.2,0.9-2,2.3-2.6,3.7c-0.7,1.5-1.2,3.1-1.9,4.6c-0.9,2.1-1.7,4.4-3,6.3c-2.7,3.7-8.2,5.7-12.7,5.7c-2.2,0-4.3-0.6-5.7-2.5
	c-1.2-1.7-1.9-3.8-2.7-5.8c-1.2-2.7-2.7-5.3-3.5-8.2c-0.4-1.5-1-3-1.2-4.6c-0.2-1.6-0.1-3.2-0.7-4.7c-0.2,0.4-0.4,0.8-0.6,1.2
	c-0.5-0.8,0-0.9,0.3-1.5c0.3-0.6-0.1-0.9-0.1-1.5c-0.1-0.2,0-0.4,0.4-0.6c-0.2-0.4-0.4-0.8-0.4-1.2c0.2-6.3,2.9-12.2,5.7-17.7
	c1-2,2.1-3.9,3.1-5.9c0.7-1.5,1.5-3.1,2.3-4.6c0.4-0.7,0.8-1.5,1.4-2.1c0.7-0.7,1-0.4,1.4,0.4c3.1-3.3,5.9-7.3,9.8-9.6
	c1.9-1.2,3.9-2,5.7-3.2c1.9-1.3,3.9-2.2,6.2-2.6c2.1-0.4,4.3-0.5,6.4-0.5c0.9,0,1.7,0,2.4,0.4c1,0.4,1.9,1,2.9,1.3
	c1,0.3,2.1,0.5,3.1,0.6c0.5,0,0.8,0.2,1.2-0.2c0.3-0.3,0.5-1,0.6-1.5c0.1-1.7-1.1-2.4-2.5-2.8c-0.5-0.2-1.4-0.3-1.5-1
	c-0.1-0.6,0.4-0.8,0.9-0.8C108.2,30.9,109.3,31.6,110.5,32C110.6,31.6,109.5,31.7,110.5,32C111,30.3,109.5,31.7,110.5,32z
	 M69.6,53.9c-0.5-0.2-0.7-0.1-0.7,0.2c0,0,0.1,0.1,0.1,0.2C69.2,54.2,69.3,54.1,69.6,53.9C69.1,53.7,69.3,54.1,69.6,53.9
	C69.1,53.7,69.3,54.1,69.6,53.9z M70.1,52.7c0.1-0.1,0.1-0.1,0.2-0.2C69.9,52.3,70.1,52.7,70.1,52.7C70.1,52.6,70,52.6,70.1,52.7z"
	/>
<g>
	<path class="st1" d="M111,43.1"/>
	<linearGradient id="SVGID_1_" gradientUnits="userSpaceOnUse" x1="56.5583" y1="24.412" x2="114.6226" y2="24.412">
		<stop  offset="0" style="stop-color:#FB406B"/>
		<stop  offset="1" style="stop-color:#FB406B;stop-opacity:0.5"/>
	</linearGradient>
	<path class="st2" d="M110.7,40.2c0.1,0.8,1.2,1,1.5,0.2c2.8-6.8,7.5-24.4-14.6-30.7c-13.8-4.1-28.8-1.2-41.1,6.1
		C82.3,2.8,106.9,10.3,110.7,40.2z"/>
	<linearGradient id="SVGID_2_" gradientUnits="userSpaceOnUse" x1="85.4158" y1="35.7002" x2="90.1005" y2="9.132">
		<stop  offset="0" style="stop-color:#F9629A"/>
		<stop  offset="1" style="stop-color:#FB406B;stop-opacity:0.5"/>
	</linearGradient>
	<path class="st3" d="M109.8,39.8C106.3,30.5,94,5.8,64,13.4c-0.5,0.1-0.8-0.6-0.3-0.8C77.6,7.1,107,0.6,110.7,39.6
		C110.7,40.1,110,40.3,109.8,39.8z"/>
	<linearGradient id="SVGID_3_" gradientUnits="userSpaceOnUse" x1="85.8615" y1="13.0098" x2="81.8142" y2="35.963">
		<stop  offset="0" style="stop-color:#FB406B"/>
		<stop  offset="1" style="stop-color:#FE7847;stop-opacity:0.4"/>
	</linearGradient>
	<path class="st4" d="M56.6,15.8c0,0,17.3-12.4,52,24.7c0.6,0.6,1.6,0,1.3-0.8C106.1,29.5,92.3,1.2,56.6,15.8z"/>
	<linearGradient id="SVGID_4_" gradientUnits="userSpaceOnUse" x1="75.3919" y1="136.2205" x2="118.1479" y2="85.266">
		<stop  offset="0" style="stop-color:#9086DA"/>
		<stop  offset="0.4825" style="stop-color:#A561DA"/>
		<stop  offset="0.954" style="stop-color:#35A3FF"/>
	</linearGradient>
	<path class="st5" d="M91.2,123.3c-28.7-16.1-0.1-29.4,20.8-35c4.2-1.1,3.8-7.1-0.4-7.8c-37.3-6.4-22.5,39.1-26,61.7
		c-0.5,3.3,3,5.8,6,4.1C100.8,141,106.7,132,91.2,123.3z"/>
	<linearGradient id="SVGID_5_" gradientUnits="userSpaceOnUse" x1="89.1648" y1="147.6083" x2="89.1648" y2="147.6083">
		<stop  offset="0" style="stop-color:#9086DA"/>
		<stop  offset="0.4825" style="stop-color:#A561DA"/>
		<stop  offset="0.954" style="stop-color:#35A3FF"/>
	</linearGradient>
	<path class="st6" d="M89.2,147.6"/>
	<linearGradient id="SVGID_6_" gradientUnits="userSpaceOnUse" x1="88.5255" y1="116.9775" x2="127.3627" y2="116.9775">
		<stop  offset="0" style="stop-color:#9086DA"/>
		<stop  offset="0.4825" style="stop-color:#A561DA"/>
		<stop  offset="0.954" style="stop-color:#35A3FF"/>
	</linearGradient>
	<path class="st7" d="M95.3,89.7c-17.7,11.4,6.4,39.4-6.1,57.9c23.2-29.7-18.5-59,38.2-60.7h0C108.6,86.9,88.7,94,95.3,89.7
		C86.9,95.2,110.9,79.8,95.3,89.7z"/>
	<linearGradient id="SVGID_7_" gradientUnits="userSpaceOnUse" x1="98.8445" y1="140.595" x2="108.7837" y2="84.2269">
		<stop  offset="0" style="stop-color:#9086DA"/>
		<stop  offset="0.4825" style="stop-color:#A561DA"/>
		<stop  offset="0.954" style="stop-color:#35A3FF"/>
	</linearGradient>
	<path class="st8" d="M97.5,92.2c-12.6,8.1,2.2,25.5-2.7,44.1c-0.8,3.3,3.2,5.5,5.5,3.1c13-13.2,12.9-31.5,23.4-47.9
		c1.3-2,0.1-4.7-2.2-5.1C103.1,83.9,90.1,97,97.5,92.2C74.6,106.9,112,83,97.5,92.2z"/>
	<linearGradient id="SVGID_8_" gradientUnits="userSpaceOnUse" x1="121.2799" y1="93.6992" x2="144.2668" y2="112.9875">
		<stop  offset="0" style="stop-color:#35A3FF"/>
		<stop  offset="0.4825" style="stop-color:#17C0DA"/>
		<stop  offset="1" style="stop-color:#90FFDA;stop-opacity:0.4"/>
	</linearGradient>
	<path class="st9" d="M117.8,106.3c6.8,1.1,12.4,3.7,16.9,7.9c3.8,3.5,10.1,1.1,10.4-4.1c0.4-8.9-3.7-16.2-12.1-21.8
		c-2.8-1.9-6.7-1.1-8.5,1.8C121.3,95,119.1,100.4,117.8,106.3C127.8,105,118.5,97,117.8,106.3z"/>
	<linearGradient id="SVGID_9_" gradientUnits="userSpaceOnUse" x1="65.5366" y1="106.5756" x2="80.1559" y2="106.5756">
		<stop  offset="0" style="stop-color:#462599"/>
		<stop  offset="1" style="stop-color:#5550DA"/>
	</linearGradient>
	<path class="st10" d="M78.3,100.6c-4,2.9-9.6,4.7-12.7-4.4c0.3,8.5,5.6,15.3,12.1,20.6c0.1-4.7,0.7-10.1,2.4-14.9
		C80.5,100.9,79.2,99.9,78.3,100.6z"/>
	<linearGradient id="SVGID_10_" gradientUnits="userSpaceOnUse" x1="47.0514" y1="43.8495" x2="85.1781" y2="148.6018">
		<stop  offset="0" style="stop-color:#9E234B;stop-opacity:0.8"/>
		<stop  offset="1" style="stop-color:#5550DA"/>
	</linearGradient>
	<path class="st11" d="M79.8,123.2c14.9,32.3-20.6,42.9-49.4,17.1C-16.7,98.1,44.1,15.4,103,39.3c1.8,0.7,1.4,3.4-0.6,3.6
		c-34.8,2.6-49.2,54.2-24.8,74"/>
	<linearGradient id="SVGID_11_" gradientUnits="userSpaceOnUse" x1="46.3227" y1="128.7253" x2="65.9611" y2="17.3509">
		<stop  offset="0" style="stop-color:#FF8E48"/>
		<stop  offset="1" style="stop-color:#FB406B;stop-opacity:0.7"/>
	</linearGradient>
	<path class="st12" d="M108.1,40.5C53.2-24.6-16,68,14.7,121.9c1.7,2.9,6.1,2.1,6.5-1.3C27.7,70.4,48.6-0.1,108,41
		c0.4,0.3,0.9-0.3,0.6-0.6C91.3,21,77.3,17.7,108.1,40.5z"/>
</g>
</svg>
